<svg width="50" height="50" viewBox="0 0 50 50" fill="none" xmlns="http://www.w3.org/2000/svg">
<path d="M7.22245 41.8503C6.17139 40.7991 4.85237 40.1098 3.42913 39.8544L0.127934 47.0416C-0.119227 47.5866 -0.00130299 48.2284 0.421497 48.6511C0.696749 48.9264 1.06481 49.0725 1.43833 49.0725C1.63918 49.0725 1.83994 49.0304 2.03101 48.9447L9.18027 45.6608C8.92659 44.2522 8.28194 42.9091 7.22245 41.8503Z" fill="#18313C"/>
<path d="M12.9753 36.0975C11.5681 34.6915 9.69576 33.919 7.71118 33.9935C7.41206 34.0009 7.12521 34.0609 6.83404 34.1037L6.10435 34.8334C5.61137 35.3264 5.21532 35.8981 4.93019 36.533L4.6142 37.2321C6.34586 37.671 7.95374 38.5135 9.25608 39.8167C10.5628 41.1224 11.4263 42.7361 11.8604 44.4495L12.5426 44.1413C13.176 43.8561 13.7476 43.4614 14.2406 42.9671L14.9735 42.2343C15.2904 40.0361 14.6124 37.7336 12.9753 36.0975Z" fill="#18313C"/>
<path d="M43.9505 33.044C41.9265 31.0186 38.5346 30.6141 36.3351 32.1985C34.9236 33.2153 34.0696 34.7167 33.9306 36.4261C33.7944 38.1129 34.4025 39.766 35.5977 40.9613C36.0457 41.4107 36.557 41.7773 37.1103 42.0484C39.7129 43.3391 41.6483 45.0596 42.8632 47.1649C43.1104 47.5933 43.5612 47.8644 44.0557 47.8826C44.0739 47.8841 44.0907 47.8841 44.1091 47.8841C44.5837 47.8841 45.0291 47.6495 45.2973 47.2562C46.5614 45.4008 47.2299 43.2238 47.2299 40.9613C47.23 37.9683 46.0656 35.1564 43.9505 33.044Z" fill="#18313C"/>
<path d="M31.0779 9.85992L27.9363 13.0015C30.0193 15.3122 32.8739 18.7438 34.9446 22.263L39.2128 17.9948C38.6274 13.7691 35.3037 10.4452 31.0779 9.85992Z" fill="#18313C"/>
<path d="M47.4016 1.63066C45.2274 -0.543553 41.4409 -0.543553 39.2667 1.63066L33.4638 7.47403C37.3444 8.69066 40.3821 11.7283 41.5987 15.609L47.4016 9.76559C48.4887 8.67848 49.087 7.23473 49.087 5.69807C49.087 4.16152 48.4887 2.71776 47.4016 1.63066Z" fill="#18313C"/>
<path d="M19.0063 8.35827C17.2298 8.86064 15.5256 9.83538 14.1242 11.2377C12.7004 12.6622 11.7221 14.3711 11.2265 16.1496C11.8286 16.8499 12.4533 17.5483 13.0929 18.2414C13.7933 16.4605 14.8476 14.7862 16.2605 13.374C17.6788 11.9546 19.3353 10.9024 21.1174 10.2036C20.4171 9.56291 19.7124 8.9544 19.0063 8.35827Z" fill="#18313C"/>
<path d="M5.89948 0.800688C5.18877 0.800688 4.63683 0.988887 4.25343 1.36672C2.78983 2.83023 4.46685 6.44119 5.59748 8.46373C6.4194 9.93385 7.64696 11.6993 9.09886 13.5559C9.79432 11.9789 10.8004 10.4944 12.0905 9.20387C13.3549 7.93844 14.8249 6.95047 16.3893 6.25453C12.0706 2.96895 8.06123 0.800688 5.89948 0.800688Z" fill="#18313C"/>
<path d="M23.4826 12.464C21.5768 12.9414 19.7533 13.9484 18.2941 15.4075C16.8201 16.8826 15.8233 18.6976 15.3499 20.5932C21.8762 27.0922 29.1192 31.8011 32.6116 31.8011C33.2887 31.8011 33.8097 31.6241 34.1608 31.273C36.5788 28.8494 30.6063 19.6183 23.4826 12.464Z" fill="#18313C"/>
<path d="M15.8757 25.0619L9.66385 31.2739C11.6644 31.6317 13.53 32.5857 15.0091 34.0635C16.5049 35.558 17.4113 37.4573 17.7592 39.4482L25.1973 32.0101C22.2989 30.3381 19.0931 27.9789 15.8757 25.0619Z" fill="#18313C"/>
</svg>
