<svg width="194" height="33" viewBox="0 0 194 33" fill="none" xmlns="http://www.w3.org/2000/svg">
<g filter="url(#filter0_ii)">
<path d="M20.08 22.204C20.1626 22.3487 20.173 22.4727 20.111 22.576C20.049 22.6587 19.9353 22.7 19.77 22.7H14.841C14.6757 22.7 14.5103 22.6587 14.345 22.576C14.1797 22.4727 14.0557 22.3487 13.973 22.204L10.687 16.314C10.6457 16.2313 10.5733 16.19 10.47 16.19H6.78098C6.67765 16.19 6.62598 16.2417 6.62598 16.345V22.111C6.62598 22.5037 6.42965 22.7 6.03698 22.7H1.75898C1.36632 22.7 1.16998 22.5037 1.16998 22.111V1.589C1.16998 1.19633 1.36632 1 1.75898 1H15.771C16.267 1 16.732 1.10333 17.166 1.31C17.6207 1.496 18.003 1.75433 18.313 2.085C18.6437 2.395 18.902 2.77733 19.088 3.232C19.2946 3.666 19.398 4.131 19.398 4.627V12.78C19.398 13.5653 19.1603 14.2783 18.685 14.919C18.2303 15.539 17.6413 15.9627 16.918 16.19L16.825 16.221C16.6803 16.2623 16.6493 16.3243 16.732 16.407C16.732 16.407 16.7423 16.4277 16.763 16.469L20.08 22.204ZM13.911 6.053H6.43998V11.323H13.911V6.053Z" fill="#588AA1"/>
<path d="M27.2085 6.053C27.1052 6.053 27.0535 6.10467 27.0535 6.208V9.587C27.0535 9.66967 27.1052 9.711 27.2085 9.711H36.0435C36.2089 9.711 36.3432 9.773 36.4465 9.897C36.5705 10.0003 36.6325 10.1347 36.6325 10.3V13.4C36.6325 13.7927 36.4362 13.989 36.0435 13.989H27.2085C27.1052 13.989 27.0535 14.0407 27.0535 14.144V17.492C27.0535 17.5953 27.1052 17.647 27.2085 17.647H37.5935C37.7589 17.647 37.8932 17.709 37.9965 17.833C38.1205 17.9363 38.1825 18.0707 38.1825 18.236V22.111C38.1825 22.2763 38.1205 22.421 37.9965 22.545C37.8932 22.6483 37.7589 22.7 37.5935 22.7H25.2245C24.7285 22.7 24.2532 22.607 23.7985 22.421C23.3645 22.235 22.9822 21.9767 22.6515 21.646C22.3209 21.3153 22.0625 20.933 21.8765 20.499C21.6905 20.0443 21.5975 19.569 21.5975 19.073V4.627C21.5975 4.131 21.6905 3.666 21.8765 3.232C22.0625 2.77733 22.3209 2.395 22.6515 2.085C22.9822 1.75433 23.3645 1.496 23.7985 1.31C24.2532 1.10333 24.7285 1 25.2245 1H37.5935C37.7589 1 37.8932 1.062 37.9965 1.186C38.1205 1.28933 38.1825 1.42367 38.1825 1.589V5.495C38.1825 5.66033 38.1205 5.79467 37.9965 5.898C37.8932 6.00133 37.7589 6.053 37.5935 6.053H27.2085Z" fill="#588AA1"/>
<path d="M54.5941 1C55.0901 1 55.5551 1.10333 55.9891 1.31C56.4438 1.496 56.8261 1.75433 57.1361 2.085C57.4668 2.395 57.7251 2.77733 57.9111 3.232C58.1178 3.666 58.2211 4.131 58.2211 4.627V22.111C58.2211 22.2763 58.1591 22.421 58.0351 22.545C57.9318 22.6483 57.7975 22.7 57.6321 22.7H53.3231C53.1578 22.7 53.0131 22.6483 52.8891 22.545C52.7858 22.421 52.7341 22.2763 52.7341 22.111V16.562C52.7341 16.3967 52.6825 16.2623 52.5791 16.159C52.4758 16.035 52.3415 15.973 52.1761 15.973H46.0381C45.8728 15.973 45.7281 16.035 45.6041 16.159C45.5008 16.2623 45.4491 16.3967 45.4491 16.562V22.111C45.4491 22.5037 45.2528 22.7 44.8601 22.7H40.5821C40.1895 22.7 39.9931 22.5037 39.9931 22.111V4.627C39.9931 4.131 40.0861 3.666 40.2721 3.232C40.4581 2.77733 40.7165 2.395 41.0471 2.085C41.3778 1.75433 41.7601 1.496 42.1941 1.31C42.6488 1.10333 43.1241 1 43.6201 1H54.5941ZM52.7341 11.323V5.867H45.4491V11.323H52.7341Z" fill="#588AA1"/>
<path d="M65.9748 6.27C65.8094 6.27 65.6648 6.32167 65.5408 6.425C65.4374 6.52833 65.3858 6.66267 65.3858 6.828V16.872C65.3858 17.0373 65.4374 17.1717 65.5408 17.275C65.6648 17.3783 65.8094 17.43 65.9748 17.43H75.9258C76.0911 17.43 76.2254 17.492 76.3288 17.616C76.4528 17.7193 76.5148 17.8537 76.5148 18.019V22.111C76.5148 22.2763 76.4528 22.421 76.3288 22.545C76.2254 22.6483 76.0911 22.7 75.9258 22.7H63.5568C63.0608 22.7 62.5854 22.607 62.1308 22.421C61.6968 22.235 61.3144 21.9767 60.9838 21.646C60.6531 21.3153 60.3948 20.933 60.2088 20.499C60.0228 20.0443 59.9298 19.569 59.9298 19.073V4.627C59.9298 4.131 60.0228 3.666 60.2088 3.232C60.3948 2.77733 60.6531 2.395 60.9838 2.085C61.3144 1.75433 61.6968 1.496 62.1308 1.31C62.5854 1.10333 63.0608 1 63.5568 1H75.9258C76.0911 1 76.2254 1.062 76.3288 1.186C76.4528 1.28933 76.5148 1.42367 76.5148 1.589V5.681C76.5148 5.84633 76.4528 5.991 76.3288 6.115C76.2254 6.21833 76.0911 6.27 75.9258 6.27H65.9748Z" fill="#588AA1"/>
<path d="M93.7013 5.681C93.7013 5.84633 93.6394 5.991 93.5154 6.115C93.412 6.21833 93.2777 6.27 93.1124 6.27H88.7104C88.545 6.27 88.4004 6.32167 88.2764 6.425C88.173 6.52833 88.1213 6.66267 88.1213 6.828V22.111C88.1213 22.2763 88.0697 22.421 87.9663 22.545C87.863 22.6483 87.7287 22.7 87.5633 22.7H83.2543C83.089 22.7 82.9444 22.6483 82.8204 22.545C82.717 22.421 82.6654 22.2763 82.6654 22.111V6.828C82.6654 6.66267 82.6137 6.52833 82.5103 6.425C82.407 6.32167 82.2727 6.27 82.1073 6.27H77.7053C77.54 6.27 77.3953 6.21833 77.2713 6.115C77.168 5.991 77.1163 5.84633 77.1163 5.681V1.589C77.1163 1.19633 77.3127 1 77.7053 1H93.1124C93.2777 1 93.412 1.062 93.5154 1.186C93.6394 1.28933 93.7013 1.42367 93.7013 1.589V5.681Z" fill="#588AA1"/>
</g>
<path fill-rule="evenodd" clip-rule="evenodd" d="M20.9482 21.7079C21.1328 22.0309 21.285 22.5629 20.9685 23.0905L20.9419 23.1347L20.911 23.176C20.5694 23.6315 20.0595 23.7 19.77 23.7H14.841C14.5029 23.7 14.1854 23.6142 13.8978 23.4704L13.8553 23.4492L13.815 23.424C13.5335 23.2481 13.2823 23.0109 13.1047 22.7001L13.0996 22.6912L10.0306 17.19H7.62598V22.111C7.62598 22.4615 7.53769 22.908 7.18584 23.2599C6.83399 23.6117 6.38746 23.7 6.03698 23.7H1.75898C1.40851 23.7 0.961974 23.6117 0.610127 23.2599C0.25828 22.908 0.169983 22.4615 0.169983 22.111V1.589C0.169983 1.23852 0.25828 0.791989 0.610126 0.440143C0.961973 0.0882967 1.4085 0 1.75898 0H15.771C16.4013 0 17.005 0.130481 17.5703 0.395054C18.1258 0.626059 18.6146 0.951709 19.0204 1.37761C19.4463 1.78337 19.7719 2.27216 20.0029 2.82769C20.2675 3.39296 20.398 3.99666 20.398 4.627V12.78C20.398 13.7827 20.0896 14.7032 19.4896 15.5128C19.1038 16.0382 18.6352 16.4585 18.0904 16.7668L20.9482 21.7079ZM17.5954 15.8978C18.0184 15.659 18.3816 15.3327 18.685 14.919C19.1603 14.2783 19.398 13.5653 19.398 12.78V4.627C19.398 4.131 19.2946 3.666 19.088 3.232C18.902 2.77733 18.6437 2.395 18.313 2.085C18.003 1.75433 17.6207 1.496 17.166 1.31C16.732 1.10333 16.267 1 15.771 1H1.75898C1.36632 1 1.16998 1.19633 1.16998 1.589V22.111C1.16998 22.5037 1.36632 22.7 1.75898 22.7H6.03698C6.42965 22.7 6.62598 22.5037 6.62598 22.111V16.345C6.62598 16.2417 6.67765 16.19 6.78098 16.19H10.47C10.5733 16.19 10.6456 16.2313 10.687 16.314L13.973 22.204C14.0556 22.3487 14.1797 22.4727 14.345 22.576C14.5103 22.6587 14.6757 22.7 14.841 22.7H19.77C19.9353 22.7 20.049 22.6587 20.111 22.576C20.173 22.4727 20.1626 22.3487 20.08 22.204L16.763 16.469L16.732 16.407C16.6493 16.3243 16.6803 16.2623 16.825 16.221L16.918 16.19C16.9333 16.1852 16.9485 16.1803 16.9637 16.1753C17.1836 16.1031 17.391 16.0124 17.5857 15.9033C17.589 15.9015 17.5922 15.8997 17.5954 15.8978ZM23.4122 23.3434L23.4046 23.3401C22.8548 23.1045 22.3659 22.7746 21.9444 22.3531C21.5229 21.9316 21.193 21.4427 20.9574 20.8929L20.9541 20.8853L20.951 20.8776C20.7153 20.3016 20.5975 19.6976 20.5975 19.073V4.627C20.5975 4.00533 20.7143 3.40818 20.9541 2.84568C21.1876 2.27769 21.5195 1.77892 21.9557 1.36665C22.3721 0.953047 22.8538 0.628357 23.3946 0.395144C23.9754 0.132803 24.5884 0 25.2245 0H37.5935C38.0177 0 38.4113 0.163811 38.7047 0.477787C39.0187 0.77122 39.1825 1.16484 39.1825 1.589V3.30777C39.2294 3.15143 39.285 2.99741 39.3496 2.84591C39.5831 2.27782 39.9151 1.77897 40.3513 1.36665C40.7677 0.953037 41.2494 0.628341 41.7903 0.395126C42.371 0.132797 42.984 0 43.6201 0H54.5941C55.2245 0 55.8282 0.130482 56.3935 0.395054C56.949 0.626063 57.4378 0.951717 57.8435 1.37762C58.2694 1.78339 58.5951 2.27218 58.8261 2.82771C58.9265 3.04219 59.0075 3.26221 59.0695 3.48711C59.125 3.26894 59.1971 3.05504 59.2863 2.84593C59.5198 2.27783 59.8517 1.77898 60.2879 1.36665C60.7043 0.953036 61.1861 0.628341 61.7269 0.395126C62.3077 0.132797 62.9206 0 63.5568 0H75.9258C76.2359 0 76.5298 0.087611 76.7801 0.257501C77.0851 0.0561835 77.4258 0 77.7053 0H93.1124C93.5365 0 93.9301 0.163812 94.2236 0.477803C94.5376 0.771245 94.7013 1.16487 94.7013 1.589V5.681C94.7013 6.12887 94.5214 6.52319 94.2225 6.82211C93.9063 7.13822 93.5049 7.27 93.1124 7.27H89.1213V22.111C89.1213 22.5041 88.9916 22.8768 88.7346 23.1852L88.7055 23.22L88.6735 23.2521C88.3573 23.5682 87.9559 23.7 87.5633 23.7H83.2543C82.8613 23.7 82.4886 23.5702 82.1802 23.3132L82.1103 23.255L82.0521 23.1852C81.7951 22.8768 81.6654 22.5041 81.6654 22.111V7.27H77.7053C77.384 7.27 77.0762 7.18325 76.8061 7.01113C76.5361 7.19173 76.2283 7.27 75.9258 7.27H66.3858V16.43H75.9258C76.3499 16.43 76.7435 16.5938 77.037 16.9078C77.351 17.2013 77.5148 17.5949 77.5148 18.019V22.111C77.5148 22.5589 77.3348 22.9532 77.0359 23.2521C76.7197 23.5682 76.3183 23.7 75.9258 23.7H63.5568C62.9322 23.7 62.3282 23.5822 61.7521 23.3465L61.7445 23.3434L61.7368 23.3401C61.1871 23.1045 60.6982 22.7746 60.2766 22.3531C59.8551 21.9316 59.5252 21.4427 59.2896 20.8929L59.2863 20.8853L59.2832 20.8776C59.2615 20.8246 59.2408 20.7713 59.2211 20.7178V22.111C59.2211 22.5589 59.0411 22.9532 58.7422 23.2521C58.4261 23.5682 58.0247 23.7 57.6321 23.7H53.3231C52.9301 23.7 52.5574 23.5702 52.2489 23.3132L52.1791 23.255L52.1209 23.1852C51.8639 22.8768 51.7341 22.5041 51.7341 22.111V16.973H46.4491V22.111C46.4491 22.4615 46.3608 22.908 46.009 23.2599C45.6571 23.6117 45.2106 23.7 44.8601 23.7H40.5821C40.2316 23.7 39.7851 23.6117 39.4333 23.2599C39.2554 23.082 39.1449 22.88 39.0791 22.6784C38.9968 22.8939 38.8683 23.0875 38.7036 23.2521C38.3875 23.5682 37.9861 23.7 37.5935 23.7H25.2245C24.6 23.7 23.9959 23.5822 23.4199 23.3465L23.4122 23.3434ZM38.9931 17.4921V6.23888C38.9113 6.38562 38.8036 6.51995 38.6707 6.63708C38.3599 6.93013 37.9726 7.053 37.5935 7.053H28.0535V8.711H36.0435C36.4677 8.711 36.8613 8.87481 37.1547 9.1888C37.4687 9.48223 37.6325 9.87584 37.6325 10.3V13.4C37.6325 13.7505 37.5442 14.197 37.1924 14.5489C36.8405 14.9007 36.394 14.989 36.0435 14.989H28.0535V16.647H37.5935C38.0177 16.647 38.4113 16.8108 38.7047 17.1248C38.8221 17.2345 38.9184 17.3581 38.9931 17.4921ZM37.9965 17.833C37.8932 17.709 37.7589 17.647 37.5935 17.647H27.2085C27.1052 17.647 27.0535 17.5953 27.0535 17.492V14.144C27.0535 14.0407 27.1052 13.989 27.2085 13.989H36.0435C36.4362 13.989 36.6325 13.7927 36.6325 13.4V10.3C36.6325 10.1347 36.5705 10.0003 36.4465 9.897C36.3432 9.773 36.2089 9.711 36.0435 9.711H27.2085C27.1052 9.711 27.0535 9.66967 27.0535 9.587V6.208C27.0535 6.10467 27.1052 6.053 27.2085 6.053H37.5935C37.7589 6.053 37.8932 6.00133 37.9965 5.898C38.1205 5.79467 38.1825 5.66033 38.1825 5.495V1.589C38.1825 1.42367 38.1205 1.28933 37.9965 1.186C37.8932 1.062 37.7589 1 37.5935 1H25.2245C24.7285 1 24.2532 1.10333 23.7985 1.31C23.3645 1.496 22.9822 1.75433 22.6515 2.085C22.3209 2.395 22.0625 2.77733 21.8765 3.232C21.6905 3.666 21.5975 4.131 21.5975 4.627V19.073C21.5975 19.569 21.6905 20.0443 21.8765 20.499C22.0625 20.933 22.3209 21.3153 22.6515 21.646C22.9822 21.9767 23.3645 22.235 23.7985 22.421C24.2532 22.607 24.7285 22.7 25.2245 22.7H37.5935C37.7589 22.7 37.8932 22.6483 37.9965 22.545C38.1205 22.421 38.1825 22.2763 38.1825 22.111V18.236C38.1825 18.0707 38.1205 17.9363 37.9965 17.833ZM76.3288 17.616C76.2254 17.492 76.0911 17.43 75.9258 17.43H65.9748C65.8094 17.43 65.6648 17.3783 65.5408 17.275C65.4374 17.1717 65.3858 17.0373 65.3858 16.872V6.828C65.3858 6.66267 65.4374 6.52833 65.5408 6.425C65.6648 6.32167 65.8094 6.27 65.9748 6.27H75.9258C76.0291 6.27 76.1204 6.2498 76.1995 6.20941C76.2469 6.1852 76.29 6.15373 76.3288 6.115C76.4528 5.991 76.5148 5.84633 76.5148 5.681V1.589C76.5148 1.42367 76.4528 1.28933 76.3288 1.186C76.2871 1.13596 76.2403 1.09601 76.1885 1.06616C76.1119 1.02205 76.0244 1 75.9258 1H63.5568C63.0608 1 62.5854 1.10333 62.1308 1.31C61.6968 1.496 61.3144 1.75433 60.9838 2.085C60.6531 2.395 60.3948 2.77733 60.2088 3.232C60.0228 3.666 59.9298 4.131 59.9298 4.627V19.073C59.9298 19.569 60.0228 20.0443 60.2088 20.499C60.3948 20.933 60.6531 21.3153 60.9838 21.646C61.3144 21.9767 61.6968 22.235 62.1308 22.421C62.5854 22.607 63.0608 22.7 63.5568 22.7H75.9258C76.0911 22.7 76.2254 22.6483 76.3288 22.545C76.4528 22.421 76.5148 22.2763 76.5148 22.111V18.019C76.5148 17.8537 76.4528 17.7193 76.3288 17.616ZM77.4248 6.21182C77.5105 6.25061 77.6041 6.27 77.7053 6.27H82.1073C82.2727 6.27 82.407 6.32167 82.5103 6.425C82.6137 6.52833 82.6654 6.66267 82.6654 6.828V22.111C82.6654 22.2763 82.717 22.421 82.8204 22.545C82.9444 22.6483 83.089 22.7 83.2543 22.7H87.5633C87.7287 22.7 87.863 22.6483 87.9663 22.545C88.0697 22.421 88.1213 22.2763 88.1213 22.111V6.828C88.1213 6.66267 88.173 6.52833 88.2764 6.425C88.4004 6.32167 88.545 6.27 88.7104 6.27H93.1124C93.2777 6.27 93.412 6.21833 93.5154 6.115C93.6394 5.991 93.7013 5.84633 93.7013 5.681V1.589C93.7013 1.42367 93.6394 1.28933 93.5154 1.186C93.412 1.062 93.2777 1 93.1124 1H77.7053C77.594 1 77.4985 1.01578 77.4188 1.04733C77.2171 1.12708 77.1163 1.30764 77.1163 1.589V5.681C77.1163 5.84633 77.168 5.991 77.2713 6.115C77.3194 6.15503 77.3705 6.1873 77.4248 6.21182ZM57.9111 3.232C57.7251 2.77733 57.4668 2.395 57.1361 2.085C56.8261 1.75433 56.4438 1.496 55.9891 1.31C55.5551 1.10333 55.0901 1 54.5941 1H43.6201C43.1241 1 42.6488 1.10333 42.1941 1.31C41.7601 1.496 41.3778 1.75433 41.0471 2.085C40.7165 2.395 40.4581 2.77733 40.2721 3.232C40.0861 3.666 39.9931 4.131 39.9931 4.627V22.111C39.9931 22.5037 40.1895 22.7 40.5821 22.7H44.8601C45.2528 22.7 45.4491 22.5037 45.4491 22.111V16.562C45.4491 16.3967 45.5008 16.2623 45.6041 16.159C45.7281 16.035 45.8728 15.973 46.0381 15.973H52.1761C52.3415 15.973 52.4758 16.035 52.5791 16.159C52.6825 16.2623 52.7341 16.3967 52.7341 16.562V22.111C52.7341 22.2763 52.7858 22.421 52.8891 22.545C53.0131 22.6483 53.1578 22.7 53.3231 22.7H57.6321C57.7975 22.7 57.9318 22.6483 58.0351 22.545C58.1591 22.421 58.2211 22.2763 58.2211 22.111V4.627C58.2211 4.131 58.1178 3.666 57.9111 3.232ZM6.43998 6.053H13.911V11.323H6.43998V6.053ZM7.43998 10.323H12.911V7.053H7.43998V10.323ZM52.7341 5.867V11.323H45.4491V5.867H52.7341ZM46.4491 6.867V10.323H51.7341V6.867H46.4491Z" fill="black"/>
<g filter="url(#filter1_ii)">
<path d="M107.958 9.649C108.454 9.649 108.919 9.742 109.353 9.928C109.808 10.114 110.19 10.3723 110.5 10.703C110.831 11.0337 111.089 11.416 111.275 11.85C111.482 12.284 111.585 12.749 111.585 13.245V19.073C111.585 19.569 111.482 20.0443 111.275 20.499C111.089 20.933 110.831 21.3153 110.5 21.646C110.19 21.9767 109.808 22.235 109.353 22.421C108.919 22.607 108.454 22.7 107.958 22.7H95.589C95.1963 22.7 95 22.5037 95 22.111V18.36C95 18.1947 95.0517 18.0603 95.155 17.957C95.279 17.833 95.4237 17.771 95.589 17.771H106.129C106.294 17.771 106.429 17.7193 106.532 17.616C106.656 17.5127 106.718 17.3783 106.718 17.213V14.64C106.718 14.4747 106.656 14.3403 106.532 14.237C106.429 14.113 106.294 14.051 106.129 14.051H98.627C98.131 14.051 97.6557 13.958 97.201 13.772C96.767 13.586 96.3847 13.3277 96.054 12.997C95.7233 12.6663 95.465 12.284 95.279 11.85C95.093 11.416 95 10.951 95 10.455V4.627C95 4.131 95.093 3.666 95.279 3.232C95.465 2.77733 95.7233 2.395 96.054 2.085C96.3847 1.75433 96.767 1.496 97.201 1.31C97.6557 1.10333 98.131 1 98.627 1H110.314C110.707 1 110.903 1.19633 110.903 1.589V5.402C110.903 5.56733 110.841 5.70167 110.717 5.805C110.614 5.90833 110.479 5.96 110.314 5.96H100.425C100.26 5.96 100.125 6.022 100.022 6.146C99.9187 6.24933 99.867 6.38367 99.867 6.549V9.06C99.867 9.22533 99.9187 9.37 100.022 9.494C100.125 9.59733 100.26 9.649 100.425 9.649H107.958Z" fill="#D46F4A"/>
<path d="M128.529 5.681C128.529 5.84633 128.467 5.991 128.343 6.115C128.24 6.21833 128.106 6.27 127.94 6.27H123.538C123.373 6.27 123.228 6.32167 123.104 6.425C123.001 6.52833 122.949 6.66267 122.949 6.828V22.111C122.949 22.2763 122.898 22.421 122.794 22.545C122.691 22.6483 122.557 22.7 122.391 22.7H118.082C117.917 22.7 117.772 22.6483 117.648 22.545C117.545 22.421 117.493 22.2763 117.493 22.111V6.828C117.493 6.66267 117.442 6.52833 117.338 6.425C117.235 6.32167 117.101 6.27 116.935 6.27H112.533C112.368 6.27 112.223 6.21833 112.099 6.115C111.996 5.991 111.944 5.84633 111.944 5.681V1.589C111.944 1.19633 112.141 1 112.533 1H127.94C128.106 1 128.24 1.062 128.343 1.186C128.467 1.28933 128.529 1.42367 128.529 1.589V5.681Z" fill="#D46F4A"/>
<path d="M143.242 1C143.738 1 144.203 1.10333 144.637 1.31C145.091 1.496 145.474 1.75433 145.784 2.085C146.114 2.395 146.373 2.77733 146.559 3.232C146.765 3.666 146.869 4.131 146.869 4.627V19.073C146.869 19.569 146.765 20.0443 146.559 20.499C146.373 20.933 146.114 21.3153 145.784 21.646C145.474 21.9767 145.091 22.235 144.637 22.421C144.203 22.607 143.738 22.7 143.242 22.7H132.268C131.772 22.7 131.296 22.607 130.842 22.421C130.408 22.235 130.025 21.9767 129.695 21.646C129.364 21.3153 129.106 20.933 128.92 20.499C128.734 20.0443 128.641 19.569 128.641 19.073V4.627C128.641 4.131 128.734 3.666 128.92 3.232C129.106 2.77733 129.364 2.395 129.695 2.085C130.025 1.75433 130.408 1.496 130.842 1.31C131.296 1.10333 131.772 1 132.268 1H143.242ZM141.382 6.27H134.097V17.43H141.382V6.27Z" fill="#D46F4A"/>
<path d="M167.241 22.204C167.323 22.3487 167.334 22.4727 167.272 22.576C167.21 22.6587 167.096 22.7 166.931 22.7H162.002C161.836 22.7 161.671 22.6587 161.506 22.576C161.34 22.4727 161.216 22.3487 161.134 22.204L157.848 16.314C157.806 16.2313 157.734 16.19 157.631 16.19H153.942C153.838 16.19 153.787 16.2417 153.787 16.345V22.111C153.787 22.5037 153.59 22.7 153.198 22.7H148.92C148.527 22.7 148.331 22.5037 148.331 22.111V1.589C148.331 1.19633 148.527 1 148.92 1H162.932C163.428 1 163.893 1.10333 164.327 1.31C164.781 1.496 165.164 1.75433 165.474 2.085C165.804 2.395 166.063 2.77733 166.249 3.232C166.455 3.666 166.559 4.131 166.559 4.627V12.78C166.559 13.5653 166.321 14.2783 165.846 14.919C165.391 15.539 164.802 15.9627 164.079 16.19L163.986 16.221C163.841 16.2623 163.81 16.3243 163.893 16.407C163.893 16.407 163.903 16.4277 163.924 16.469L167.241 22.204ZM161.072 6.053H153.601V11.323H161.072V6.053Z" fill="#D46F4A"/>
<path d="M188.133 1C188.629 1 189.094 1.10333 189.528 1.31C189.983 1.496 190.365 1.75433 190.675 2.085C191.006 2.395 191.264 2.77733 191.45 3.232C191.657 3.666 191.76 4.131 191.76 4.627V22.111C191.76 22.2763 191.698 22.421 191.574 22.545C191.471 22.6483 191.337 22.7 191.171 22.7H186.862C186.697 22.7 186.563 22.6483 186.459 22.545C186.356 22.421 186.304 22.2763 186.304 22.111V6.27H182.832V22.111C182.832 22.2763 182.781 22.421 182.677 22.545C182.574 22.6483 182.44 22.7 182.274 22.7H178.368C178.203 22.7 178.058 22.6483 177.934 22.545C177.831 22.421 177.779 22.2763 177.779 22.111V6.27H174.307V22.111C174.307 22.5037 174.111 22.7 173.718 22.7H169.44C169.048 22.7 168.851 22.5037 168.851 22.111V1.589C168.851 1.19633 169.048 1 169.44 1H188.133Z" fill="#D46F4A"/>
</g>
<path fill-rule="evenodd" clip-rule="evenodd" d="M105.718 16.771V15.051H98.627C98.0024 15.051 97.3984 14.9332 96.8224 14.6975L96.8147 14.6944L96.8071 14.6911C96.2573 14.4555 95.7684 14.1256 95.3469 13.7041C94.9254 13.2826 94.5955 12.7937 94.3599 12.2439C94.1178 11.6792 94 11.0795 94 10.455V4.627C94 4.00536 94.1168 3.40823 94.3566 2.84575C94.5901 2.27773 94.922 1.77894 95.3582 1.36665C95.7746 0.953046 96.2563 0.628351 96.7971 0.395135C97.3779 0.1328 97.9909 0 98.627 0H110.314C110.652 0 111.078 0.0819289 111.424 0.402424C111.769 0.081928 112.196 0 112.533 0H127.94C128.365 0 128.758 0.163807 129.052 0.47779C129.213 0.628514 129.335 0.805669 129.415 0.999814C129.727 0.756164 130.069 0.55433 130.438 0.395126C131.018 0.132798 131.631 0 132.268 0H143.242C143.872 0 144.476 0.130481 145.041 0.395054C145.596 0.626061 146.085 0.951716 146.491 1.37762C146.835 1.70583 147.114 2.08835 147.331 2.51657V1.589C147.331 1.23852 147.419 0.791984 147.771 0.440139C148.123 0.0882966 148.569 0 148.92 0H162.932C163.562 0 164.166 0.130481 164.731 0.395054C165.287 0.626065 165.775 0.951727 166.181 1.37764C166.607 1.78337 166.933 2.2721 167.164 2.82756C167.428 3.39287 167.559 3.99662 167.559 4.627V12.78C167.559 13.7828 167.25 14.7034 166.65 15.5131C166.264 16.0384 165.796 16.4586 165.251 16.7668L167.851 21.2623V1.589C167.851 1.23852 167.94 0.791984 168.291 0.440139C168.643 0.0882966 169.09 0 169.44 0H188.133C188.764 0 189.367 0.130481 189.933 0.395054C190.488 0.626054 190.977 0.951696 191.383 1.37758C191.808 1.78333 192.134 2.27208 192.365 2.82756C192.63 3.39286 192.76 3.9966 192.76 4.627V22.111C192.76 22.5589 192.58 22.9532 192.281 23.2521C191.965 23.5682 191.564 23.7 191.171 23.7H186.862C186.47 23.7 186.068 23.5682 185.752 23.2521L185.72 23.22L185.691 23.1852C185.434 22.8768 185.304 22.5041 185.304 22.111V7.27H183.832V22.111C183.832 22.5041 183.702 22.8768 183.445 23.1852L183.416 23.22L183.384 23.2521C183.068 23.5682 182.667 23.7 182.274 23.7H178.368C177.975 23.7 177.602 23.5702 177.294 23.3132L177.224 23.255L177.166 23.1852C176.909 22.8768 176.779 22.5041 176.779 22.111V7.27H175.307V22.111C175.307 22.4615 175.219 22.908 174.867 23.2599C174.515 23.6117 174.069 23.7 173.718 23.7H169.44C169.09 23.7 168.643 23.6117 168.291 23.2599C168.233 23.2014 168.182 23.1402 168.137 23.0774C168.134 23.0818 168.132 23.0861 168.129 23.0905L168.103 23.1347L168.072 23.176C167.73 23.6314 167.22 23.7 166.931 23.7H162.002C161.664 23.7 161.346 23.6142 161.058 23.4704L161.016 23.4492L160.976 23.424C160.694 23.2481 160.443 23.0109 160.265 22.7001L160.26 22.6912L157.191 17.19H154.787V22.111C154.787 22.4615 154.698 22.908 154.347 23.2598C153.995 23.6117 153.548 23.7 153.198 23.7H148.92C148.569 23.7 148.123 23.6117 147.771 23.2599C147.419 22.908 147.331 22.4615 147.331 22.111V21.2046C147.114 21.6243 146.837 22.0045 146.502 22.3418C146.09 22.778 145.591 23.1099 145.023 23.3434C144.46 23.5832 143.863 23.7 143.242 23.7H132.268C131.643 23.7 131.039 23.5822 130.463 23.3465L130.455 23.3434L130.448 23.3401C129.898 23.1045 129.409 22.7746 128.987 22.3531C128.566 21.9316 128.236 21.4427 128 20.8929L127.997 20.8853L127.994 20.8776C127.758 20.3016 127.641 19.6976 127.641 19.073V7.27H123.949V22.111C123.949 22.5041 123.82 22.8768 123.563 23.1852L123.534 23.22L123.502 23.2521C123.185 23.5682 122.784 23.7 122.391 23.7H118.082C117.689 23.7 117.317 23.5702 117.008 23.3132L116.938 23.255L116.88 23.1852C116.623 22.8768 116.493 22.5041 116.493 22.111V7.27H112.533C112.14 7.27 111.768 7.14024 111.459 6.88322L111.389 6.82502L111.331 6.75519C111.305 6.72338 111.28 6.69089 111.256 6.65776C110.972 6.86926 110.64 6.96 110.314 6.96H100.867V8.649H107.958C108.58 8.649 109.177 8.76577 109.739 9.00559C110.307 9.23909 110.806 9.57098 111.218 10.0072C111.63 10.4215 111.953 10.9005 112.186 11.4381C112.453 12.0056 112.585 12.6118 112.585 13.245V19.073C112.585 19.7091 112.452 20.3221 112.19 20.9028C111.957 21.4437 111.632 21.9254 111.218 22.3418C110.806 22.778 110.307 23.1099 109.739 23.3434C109.177 23.5832 108.58 23.7 107.958 23.7H95.589C95.2385 23.7 94.792 23.6117 94.4401 23.2599C94.0883 22.908 94 22.4615 94 22.111V18.36C94 17.9674 94.1318 17.566 94.4479 17.2499L95.155 17.957C95.0517 18.0603 95 18.1947 95 18.36V22.111C95 22.5037 95.1963 22.7 95.589 22.7H107.958C108.454 22.7 108.919 22.607 109.353 22.421C109.808 22.235 110.19 21.9767 110.5 21.646C110.831 21.3153 111.089 20.933 111.275 20.499C111.482 20.0443 111.585 19.569 111.585 19.073V13.245C111.585 12.749 111.482 12.284 111.275 11.85C111.089 11.416 110.831 11.0337 110.5 10.703C110.19 10.3723 109.808 10.114 109.353 9.928C108.919 9.742 108.454 9.649 107.958 9.649H100.425C100.26 9.649 100.125 9.59733 100.022 9.494C99.9187 9.37 99.867 9.22533 99.867 9.06V6.549C99.867 6.38367 99.9187 6.24933 100.022 6.146C100.125 6.022 100.26 5.96 100.425 5.96H110.314C110.479 5.96 110.614 5.90833 110.717 5.805C110.841 5.70167 110.903 5.56733 110.903 5.402V1.589C110.903 1.19633 110.707 1 110.314 1H98.627C98.131 1 97.6557 1.10333 97.201 1.31C96.767 1.496 96.3847 1.75433 96.054 2.085C95.7233 2.395 95.465 2.77733 95.279 3.232C95.093 3.666 95 4.131 95 4.627V10.455C95 10.951 95.093 11.416 95.279 11.85C95.465 12.284 95.7233 12.6663 96.054 12.997C96.3847 13.3277 96.767 13.586 97.201 13.772C97.6557 13.958 98.131 14.051 98.627 14.051H106.129C106.294 14.051 106.429 14.113 106.532 14.237C106.656 14.3403 106.718 14.4747 106.718 14.64V17.213C106.718 17.3783 106.656 17.5127 106.532 17.616C106.429 17.7193 106.294 17.771 106.129 17.771H95.589C95.4237 17.771 95.279 17.833 95.155 17.957L94.4479 17.2499C94.7468 16.951 95.1411 16.771 95.589 16.771H105.718ZM123.104 6.425C123.228 6.32167 123.373 6.27 123.538 6.27H127.94C128.106 6.27 128.24 6.21833 128.343 6.115C128.467 5.991 128.529 5.84633 128.529 5.681V1.589C128.529 1.42367 128.467 1.28933 128.343 1.186C128.24 1.062 128.106 1 127.94 1H112.533C112.141 1 111.944 1.19633 111.944 1.589V5.681C111.944 5.84633 111.996 5.991 112.099 6.115C112.223 6.21833 112.368 6.27 112.533 6.27H116.935C117.101 6.27 117.235 6.32167 117.338 6.425C117.442 6.52833 117.493 6.66267 117.493 6.828V22.111C117.493 22.2763 117.545 22.421 117.648 22.545C117.772 22.6483 117.917 22.7 118.082 22.7H122.391C122.557 22.7 122.691 22.6483 122.794 22.545C122.898 22.421 122.949 22.2763 122.949 22.111V6.828C122.949 6.66267 123.001 6.52833 123.104 6.425ZM129.529 2.25244C129.277 2.52949 129.073 2.85601 128.92 3.232C128.734 3.666 128.641 4.131 128.641 4.627V19.073C128.641 19.569 128.734 20.0443 128.92 20.499C129.106 20.933 129.364 21.3153 129.695 21.646C130.025 21.9767 130.408 22.235 130.842 22.421C131.296 22.607 131.772 22.7 132.268 22.7H143.242C143.738 22.7 144.203 22.607 144.637 22.421C145.091 22.235 145.474 21.9767 145.784 21.646C146.114 21.3153 146.373 20.933 146.559 20.499C146.765 20.0443 146.869 19.569 146.869 19.073V4.627C146.869 4.131 146.765 3.666 146.559 3.232C146.373 2.77733 146.114 2.395 145.784 2.085C145.474 1.75433 145.091 1.496 144.637 1.31C144.203 1.10333 143.738 1 143.242 1H132.268C131.772 1 131.296 1.10333 130.842 1.31C130.408 1.496 130.025 1.75433 129.695 2.085C129.637 2.13865 129.582 2.19446 129.529 2.25244ZM174.307 6.27H177.779V22.111C177.779 22.2763 177.831 22.421 177.934 22.545C178.058 22.6483 178.203 22.7 178.368 22.7H182.274C182.44 22.7 182.574 22.6483 182.677 22.545C182.781 22.421 182.832 22.2763 182.832 22.111V6.27H186.304V22.111C186.304 22.2763 186.356 22.421 186.459 22.545C186.563 22.6483 186.697 22.7 186.862 22.7H191.171C191.337 22.7 191.471 22.6483 191.574 22.545C191.698 22.421 191.76 22.2763 191.76 22.111V4.627C191.76 4.131 191.657 3.666 191.45 3.232C191.264 2.77733 191.006 2.395 190.675 2.085C190.365 1.75433 189.983 1.496 189.528 1.31C189.094 1.10333 188.629 1 188.133 1H169.44C169.048 1 168.851 1.19633 168.851 1.589V22.111C168.851 22.5037 169.048 22.7 169.44 22.7H173.718C174.111 22.7 174.307 22.5037 174.307 22.111V6.27ZM164.756 15.8979C165.179 15.659 165.542 15.3327 165.846 14.919C166.321 14.2783 166.559 13.5653 166.559 12.78V4.627C166.559 4.131 166.455 3.666 166.249 3.232C166.063 2.77733 165.804 2.395 165.474 2.085C165.164 1.75433 164.781 1.496 164.327 1.31C163.893 1.10333 163.428 1 162.932 1H148.92C148.527 1 148.331 1.19633 148.331 1.589V22.111C148.331 22.5037 148.527 22.7 148.92 22.7H153.198C153.59 22.7 153.787 22.5037 153.787 22.111V16.345C153.787 16.2417 153.838 16.19 153.942 16.19H157.631C157.734 16.19 157.806 16.2313 157.848 16.314L161.134 22.204C161.216 22.3487 161.34 22.4727 161.506 22.576C161.671 22.6587 161.836 22.7 162.002 22.7H166.931C167.096 22.7 167.21 22.6587 167.272 22.576C167.334 22.4727 167.323 22.3487 167.241 22.204L163.924 16.469L163.893 16.407C163.81 16.3243 163.841 16.2623 163.986 16.221L164.079 16.19C164.094 16.1852 164.109 16.1803 164.124 16.1753C164.344 16.1031 164.552 16.0124 164.746 15.9033C164.75 15.9015 164.753 15.8997 164.756 15.8979ZM134.097 6.27H141.382V17.43H134.097V6.27ZM135.097 16.43H140.382V7.27H135.097V16.43ZM153.601 6.053H161.072V11.323H153.601V6.053ZM154.601 10.323H160.072V7.053H154.601V10.323Z" fill="black"/>
<g filter="url(#filter2_ii)">
<path d="M121.904 29.08C121.877 29.112 121.864 29.152 121.864 29.2C121.869 29.248 121.885 29.2853 121.912 29.312L122.248 29.712C122.275 29.744 122.296 29.7867 122.312 29.84C122.333 29.888 122.344 29.9333 122.344 29.976V31.064C122.344 31.192 122.317 31.3147 122.264 31.432C122.216 31.544 122.149 31.6427 122.064 31.728C121.984 31.8133 121.885 31.88 121.768 31.928C121.656 31.976 121.536 32 121.408 32H117.792C117.691 32 117.64 31.9493 117.64 31.848V26.552C117.64 26.4507 117.691 26.4 117.792 26.4H121.408C121.536 26.4 121.656 26.4267 121.768 26.48C121.885 26.528 121.984 26.5947 122.064 26.68C122.149 26.76 122.216 26.8587 122.264 26.976C122.317 27.088 122.344 27.208 122.344 27.336V28.376C122.344 28.4187 122.333 28.4667 122.312 28.52C122.296 28.568 122.275 28.608 122.248 28.64L121.904 29.08ZM121.064 29.68H118.912V30.776H121.064V29.68ZM121.064 27.616H118.912V28.616H121.064V27.616Z" fill="#F6BF51"/>
<path d="M127.585 26.4C127.628 26.4 127.657 26.4133 127.673 26.44C127.689 26.4613 127.687 26.4907 127.665 26.528L125.865 29.792C125.844 29.8293 125.825 29.8747 125.809 29.928C125.799 29.9813 125.793 30.0293 125.793 30.072V31.848C125.793 31.8907 125.78 31.928 125.753 31.96C125.727 31.9867 125.692 32 125.649 32H124.537C124.495 32 124.457 31.9867 124.425 31.96C124.399 31.928 124.385 31.8907 124.385 31.848V30.072C124.385 30.0293 124.377 29.9813 124.361 29.928C124.351 29.8747 124.335 29.8293 124.313 29.792L122.521 26.528C122.5 26.4907 122.497 26.4613 122.513 26.44C122.529 26.4133 122.559 26.4 122.601 26.4H123.801C123.844 26.4 123.884 26.4133 123.921 26.44C123.964 26.4613 123.996 26.4907 124.017 26.528L125.089 28.632L126.161 26.528C126.183 26.4907 126.215 26.4613 126.257 26.44C126.3 26.4133 126.343 26.4 126.385 26.4H127.585Z" fill="#F6BF51"/>
<path d="M133.542 26.4C133.585 26.4 133.62 26.416 133.646 26.448C133.678 26.4747 133.694 26.5093 133.694 26.552V31.064C133.694 31.192 133.668 31.3147 133.614 31.432C133.566 31.544 133.5 31.6427 133.414 31.728C133.334 31.8133 133.236 31.88 133.118 31.928C133.006 31.976 132.886 32 132.758 32H130.35C130.222 32 130.1 31.976 129.982 31.928C129.87 31.88 129.772 31.8133 129.686 31.728C129.601 31.6427 129.534 31.544 129.486 31.432C129.438 31.3147 129.414 31.192 129.414 31.064V29.352C129.414 29.2507 129.465 29.2 129.566 29.2H130.67C130.772 29.2 130.822 29.2507 130.822 29.352V30.496C130.822 30.5387 130.836 30.5733 130.862 30.6C130.894 30.6267 130.932 30.64 130.974 30.64H132.134C132.177 30.64 132.212 30.6267 132.238 30.6C132.27 30.5733 132.286 30.5387 132.286 30.496V26.552C132.286 26.5093 132.3 26.4747 132.326 26.448C132.353 26.416 132.388 26.4 132.43 26.4H133.542Z" fill="#F6BF51"/>
<path d="M137.989 26.4C138.117 26.4 138.237 26.4267 138.349 26.48C138.466 26.528 138.565 26.5947 138.645 26.68C138.73 26.76 138.797 26.8587 138.845 26.976C138.898 27.088 138.925 27.208 138.925 27.336V31.064C138.925 31.192 138.898 31.3147 138.845 31.432C138.797 31.544 138.73 31.6427 138.645 31.728C138.565 31.8133 138.466 31.88 138.349 31.928C138.237 31.976 138.117 32 137.989 32H135.157C135.029 32 134.906 31.976 134.789 31.928C134.677 31.88 134.578 31.8133 134.493 31.728C134.407 31.6427 134.341 31.544 134.293 31.432C134.245 31.3147 134.221 31.192 134.221 31.064V27.336C134.221 27.208 134.245 27.088 134.293 26.976C134.341 26.8587 134.407 26.76 134.493 26.68C134.578 26.5947 134.677 26.528 134.789 26.48C134.906 26.4267 135.029 26.4 135.157 26.4H137.989ZM137.509 27.76H135.629V30.64H137.509V27.76Z" fill="#F6BF51"/>
<path d="M144.014 26.4C144.057 26.4 144.091 26.416 144.118 26.448C144.15 26.4747 144.166 26.5093 144.166 26.552V31.848C144.166 31.8907 144.15 31.928 144.118 31.96C144.091 31.9867 144.057 32 144.014 32H142.958H142.862C142.819 32 142.777 31.9893 142.734 31.968C142.691 31.9413 142.659 31.9093 142.638 31.872L140.87 28.608V31.848C140.87 31.9493 140.819 32 140.718 32H139.614C139.513 32 139.462 31.9493 139.462 31.848V26.552C139.462 26.4507 139.513 26.4 139.614 26.4H140.75C140.793 26.4 140.835 26.4133 140.878 26.44C140.921 26.4613 140.953 26.4907 140.974 26.528L142.75 29.8V26.552C142.75 26.5093 142.763 26.4747 142.79 26.448C142.822 26.416 142.859 26.4 142.902 26.4H144.014Z" fill="#F6BF51"/>
<path d="M148.478 26.4C148.606 26.4 148.726 26.4267 148.838 26.48C148.956 26.528 149.054 26.5947 149.134 26.68C149.22 26.76 149.286 26.8587 149.334 26.976C149.388 27.088 149.414 27.208 149.414 27.336V31.848C149.414 31.8907 149.398 31.928 149.366 31.96C149.34 31.9867 149.305 32 149.262 32H148.15C148.108 32 148.07 31.9867 148.038 31.96C148.012 31.928 147.998 31.8907 147.998 31.848V30.416C147.998 30.3733 147.985 30.3387 147.958 30.312C147.932 30.28 147.897 30.264 147.854 30.264H146.27C146.228 30.264 146.19 30.28 146.158 30.312C146.132 30.3387 146.118 30.3733 146.118 30.416V31.848C146.118 31.9493 146.068 32 145.966 32H144.862C144.761 32 144.71 31.9493 144.71 31.848V27.336C144.71 27.208 144.734 27.088 144.782 26.976C144.83 26.8587 144.897 26.76 144.982 26.68C145.068 26.5947 145.166 26.528 145.278 26.48C145.396 26.4267 145.518 26.4 145.646 26.4H148.478ZM147.998 29.064V27.656H146.118V29.064H147.998Z" fill="#F6BF51"/>
<path d="M153.919 27.608C153.919 27.6507 153.903 27.688 153.871 27.72C153.845 27.7467 153.81 27.76 153.767 27.76H152.631C152.589 27.76 152.551 27.7733 152.519 27.8C152.493 27.8267 152.479 27.8613 152.479 27.904V31.848C152.479 31.8907 152.466 31.928 152.439 31.96C152.413 31.9867 152.378 32 152.335 32H151.223C151.181 32 151.143 31.9867 151.111 31.96C151.085 31.928 151.071 31.8907 151.071 31.848V27.904C151.071 27.8613 151.058 27.8267 151.031 27.8C151.005 27.7733 150.97 27.76 150.927 27.76H149.791C149.749 27.76 149.711 27.7467 149.679 27.72C149.653 27.688 149.639 27.6507 149.639 27.608V26.552C149.639 26.4507 149.69 26.4 149.791 26.4H150.927H151.223H152.335H152.631H153.767C153.81 26.4 153.845 26.416 153.871 26.448C153.903 26.4747 153.919 26.5093 153.919 26.552V27.608Z" fill="#F6BF51"/>
<path d="M158.713 26.4C158.756 26.4 158.791 26.416 158.817 26.448C158.849 26.4747 158.865 26.5093 158.865 26.552V31.848C158.865 31.8907 158.849 31.928 158.817 31.96C158.791 31.9867 158.756 32 158.713 32H157.601C157.559 32 157.521 31.9867 157.489 31.96C157.463 31.928 157.449 31.8907 157.449 31.848V30C157.449 29.9573 157.436 29.9227 157.409 29.896C157.383 29.8693 157.348 29.856 157.305 29.856H155.721C155.679 29.856 155.641 29.8693 155.609 29.896C155.583 29.9227 155.569 29.9573 155.569 30V31.848C155.569 31.9493 155.519 32 155.417 32H154.313C154.212 32 154.161 31.9493 154.161 31.848V26.552C154.161 26.4507 154.212 26.4 154.313 26.4H155.417C155.519 26.4 155.569 26.4507 155.569 26.552V28.344C155.569 28.4453 155.62 28.496 155.721 28.496H157.305C157.348 28.496 157.383 28.4827 157.409 28.456C157.436 28.424 157.449 28.3867 157.449 28.344V26.552C157.449 26.5093 157.463 26.4747 157.489 26.448C157.521 26.416 157.559 26.4 157.601 26.4H158.713Z" fill="#F6BF51"/>
<path d="M163.178 26.4C163.306 26.4 163.426 26.4267 163.538 26.48C163.655 26.528 163.754 26.5947 163.834 26.68C163.919 26.76 163.986 26.8587 164.034 26.976C164.087 27.088 164.114 27.208 164.114 27.336V31.848C164.114 31.8907 164.098 31.928 164.066 31.96C164.039 31.9867 164.004 32 163.962 32H162.85C162.807 32 162.77 31.9867 162.738 31.96C162.711 31.928 162.698 31.8907 162.698 31.848V30.416C162.698 30.3733 162.684 30.3387 162.658 30.312C162.631 30.28 162.596 30.264 162.554 30.264H160.97C160.927 30.264 160.89 30.28 160.858 30.312C160.831 30.3387 160.818 30.3733 160.818 30.416V31.848C160.818 31.9493 160.767 32 160.666 32H159.562C159.46 32 159.41 31.9493 159.41 31.848V27.336C159.41 27.208 159.434 27.088 159.482 26.976C159.53 26.8587 159.596 26.76 159.682 26.68C159.767 26.5947 159.866 26.528 159.978 26.48C160.095 26.4267 160.218 26.4 160.346 26.4H163.178ZM162.698 29.064V27.656H160.818V29.064H162.698Z" fill="#F6BF51"/>
<path d="M169.211 26.4C169.253 26.4 169.288 26.416 169.315 26.448C169.347 26.4747 169.363 26.5093 169.363 26.552V31.848C169.363 31.8907 169.347 31.928 169.315 31.96C169.288 31.9867 169.253 32 169.211 32H168.155H168.059C168.016 32 167.973 31.9893 167.931 31.968C167.888 31.9413 167.856 31.9093 167.835 31.872L166.067 28.608V31.848C166.067 31.9493 166.016 32 165.915 32H164.811C164.709 32 164.659 31.9493 164.659 31.848V26.552C164.659 26.4507 164.709 26.4 164.811 26.4H165.947C165.989 26.4 166.032 26.4133 166.075 26.44C166.117 26.4613 166.149 26.4907 166.171 26.528L167.947 29.8V26.552C167.947 26.5093 167.96 26.4747 167.987 26.448C168.019 26.416 168.056 26.4 168.099 26.4H169.211Z" fill="#F6BF51"/>
<path d="M176.178 29.08C176.151 29.112 176.138 29.152 176.138 29.2C176.143 29.248 176.159 29.2853 176.186 29.312L176.522 29.712C176.549 29.744 176.57 29.7867 176.586 29.84C176.607 29.888 176.618 29.9333 176.618 29.976V31.064C176.618 31.192 176.591 31.3147 176.538 31.432C176.49 31.544 176.423 31.6427 176.338 31.728C176.258 31.8133 176.159 31.88 176.042 31.928C175.93 31.976 175.81 32 175.682 32H172.066C171.965 32 171.914 31.9493 171.914 31.848V26.552C171.914 26.4507 171.965 26.4 172.066 26.4H175.682C175.81 26.4 175.93 26.4267 176.042 26.48C176.159 26.528 176.258 26.5947 176.338 26.68C176.423 26.76 176.49 26.8587 176.538 26.976C176.591 27.088 176.618 27.208 176.618 27.336V28.376C176.618 28.4187 176.607 28.4667 176.586 28.52C176.57 28.568 176.549 28.608 176.522 28.64L176.178 29.08ZM175.338 29.68H173.186V30.776H175.338V29.68ZM175.338 27.616H173.186V28.616H175.338V27.616Z" fill="#F6BF51"/>
<path d="M180.891 26.4C181.019 26.4 181.139 26.4267 181.251 26.48C181.369 26.528 181.467 26.5947 181.547 26.68C181.633 26.76 181.699 26.8587 181.747 26.976C181.801 27.088 181.827 27.208 181.827 27.336V31.064C181.827 31.192 181.801 31.3147 181.747 31.432C181.699 31.544 181.633 31.6427 181.547 31.728C181.467 31.8133 181.369 31.88 181.251 31.928C181.139 31.976 181.019 32 180.891 32H178.059C177.931 32 177.809 31.976 177.691 31.928C177.579 31.88 177.481 31.8133 177.395 31.728C177.31 31.6427 177.243 31.544 177.195 31.432C177.147 31.3147 177.123 31.192 177.123 31.064V27.336C177.123 27.208 177.147 27.088 177.195 26.976C177.243 26.8587 177.31 26.76 177.395 26.68C177.481 26.5947 177.579 26.528 177.691 26.48C177.809 26.4267 177.931 26.4 178.059 26.4H180.891ZM180.411 27.76H178.531V30.64H180.411V27.76Z" fill="#F6BF51"/>
<path d="M187.245 31.872C187.266 31.9093 187.269 31.9413 187.253 31.968C187.237 31.9893 187.207 32 187.165 32H185.893C185.85 32 185.807 31.9893 185.765 31.968C185.722 31.9413 185.69 31.9093 185.669 31.872L184.821 30.352C184.81 30.3307 184.791 30.32 184.765 30.32H183.813C183.786 30.32 183.773 30.3333 183.773 30.36V31.848C183.773 31.9493 183.722 32 183.621 32H182.517C182.415 32 182.365 31.9493 182.365 31.848V26.552C182.365 26.4507 182.415 26.4 182.517 26.4H186.133C186.261 26.4 186.381 26.4267 186.493 26.48C186.61 26.528 186.709 26.5947 186.789 26.68C186.874 26.76 186.941 26.8587 186.989 26.976C187.042 27.088 187.069 27.208 187.069 27.336V29.44C187.069 29.6427 187.007 29.8267 186.885 29.992C186.767 30.152 186.615 30.2613 186.429 30.32L186.405 30.328C186.367 30.3387 186.359 30.3547 186.381 30.376C186.381 30.376 186.383 30.3813 186.389 30.392L187.245 31.872ZM185.653 27.704H183.725V29.064H185.653V27.704Z" fill="#F6BF51"/>
<path d="M192.274 28.944C192.317 28.944 192.352 28.96 192.378 28.992C192.41 29.0187 192.426 29.0533 192.426 29.096V31.064C192.426 31.192 192.4 31.3147 192.346 31.432C192.298 31.544 192.232 31.6427 192.146 31.728C192.066 31.8133 191.968 31.88 191.85 31.928C191.738 31.976 191.618 32 191.49 32H188.658C188.53 32 188.408 31.976 188.29 31.928C188.178 31.88 188.08 31.8133 187.994 31.728C187.909 31.6427 187.842 31.544 187.794 31.432C187.746 31.3147 187.722 31.192 187.722 31.064V27.336C187.722 27.208 187.746 27.088 187.794 26.976C187.842 26.8587 187.909 26.76 187.994 26.68C188.08 26.5947 188.178 26.528 188.29 26.48C188.408 26.4267 188.53 26.4 188.658 26.4H191.962C192.005 26.4 192.04 26.416 192.066 26.448C192.098 26.4747 192.114 26.5093 192.114 26.552V27.608C192.114 27.6507 192.098 27.688 192.066 27.72C192.04 27.7467 192.005 27.76 191.962 27.76H189.282C189.24 27.76 189.202 27.7733 189.17 27.8C189.144 27.8267 189.13 27.8613 189.13 27.904V30.496C189.13 30.5387 189.144 30.5733 189.17 30.6C189.202 30.6267 189.24 30.64 189.282 30.64H190.866C190.909 30.64 190.944 30.6267 190.97 30.6C190.997 30.5733 191.01 30.5387 191.01 30.496V29.096C191.01 29.0533 191.024 29.0187 191.05 28.992C191.082 28.96 191.12 28.944 191.162 28.944H192.274Z" fill="#F6BF51"/>
</g>
<path fill-rule="evenodd" clip-rule="evenodd" d="M122.312 29.84C122.296 29.7867 122.275 29.744 122.248 29.712L121.912 29.312C121.885 29.2853 121.869 29.248 121.864 29.2C121.864 29.152 121.877 29.112 121.904 29.08L122.248 28.64C122.275 28.608 122.296 28.568 122.312 28.52C122.333 28.4667 122.344 28.4187 122.344 28.376V27.336C122.344 27.208 122.317 27.088 122.264 26.976C122.229 26.8913 122.185 26.8163 122.131 26.7511C122.129 26.7491 122.128 26.7471 122.126 26.7451C122.106 26.7222 122.086 26.7005 122.064 26.68C122.043 26.6573 122.02 26.636 121.996 26.616C121.93 26.5606 121.854 26.5153 121.768 26.48C121.684 26.4401 121.596 26.4151 121.503 26.405C121.472 26.4017 121.44 26.4 121.408 26.4H117.792C117.691 26.4 117.64 26.4507 117.64 26.552V31.848C117.64 31.9493 117.691 32 117.792 32H121.408C121.536 32 121.656 31.976 121.768 31.928C121.862 31.8894 121.945 31.8387 122.015 31.776C122.032 31.7607 122.048 31.7447 122.064 31.728C122.149 31.6427 122.216 31.544 122.264 31.432C122.317 31.3147 122.344 31.192 122.344 31.064V29.976C122.344 29.9333 122.333 29.888 122.312 29.84ZM123.344 30.1043V31.064C123.344 31.3321 123.288 31.5923 123.179 31.8358C123.084 32.0549 122.951 32.2529 122.782 32.424C122.6 32.6144 122.385 32.7547 122.154 32.8504C121.914 32.9522 121.662 33 121.408 33H117.792C117.587 33 117.25 32.9481 116.971 32.6691C116.692 32.3901 116.64 32.0528 116.64 31.848V26.552C116.64 26.3472 116.692 26.0099 116.971 25.7309C117.25 25.4519 117.587 25.4 117.792 25.4H121.408C121.637 25.4 121.864 25.4411 122.079 25.5257C122.27 25.4276 122.464 25.4 122.601 25.4H123.801C124.039 25.4 124.255 25.4695 124.436 25.5819C124.61 25.6823 124.77 25.8304 124.886 26.0319L124.897 26.0527L125.089 26.4292L125.281 26.0527L125.293 26.0319C125.413 25.8211 125.584 25.6687 125.767 25.5682C125.934 25.472 126.143 25.4 126.385 25.4H127.585C127.824 25.4 128.239 25.4842 128.502 25.8801C128.835 26.3649 128.629 26.8512 128.541 27.0109L126.793 30.18V31.848C126.793 32.1184 126.702 32.3838 126.522 32.6002L126.493 32.635L126.46 32.6671C126.221 32.9065 125.919 33 125.649 33H124.537C124.267 33 124.002 32.9086 123.785 32.7282L123.715 32.67L123.657 32.6002C123.477 32.3838 123.385 32.1184 123.385 31.848V30.1796L123.344 30.1043ZM125.809 29.928C125.825 29.8747 125.844 29.8293 125.865 29.792L127.665 26.528C127.687 26.4907 127.689 26.4613 127.673 26.44C127.657 26.4133 127.628 26.4 127.585 26.4H126.385C126.343 26.4 126.3 26.4133 126.257 26.44C126.215 26.4613 126.183 26.4907 126.161 26.528L125.089 28.632L124.017 26.528C123.996 26.4907 123.964 26.4613 123.921 26.44C123.884 26.4133 123.844 26.4 123.801 26.4H122.601C122.559 26.4 122.529 26.4133 122.513 26.44C122.497 26.4613 122.5 26.4907 122.521 26.528L124.313 29.792C124.335 29.8293 124.351 29.8747 124.361 29.928C124.377 29.9813 124.385 30.0293 124.385 30.072V31.848C124.385 31.8907 124.399 31.928 124.425 31.96C124.457 31.9867 124.495 32 124.537 32H125.649C125.692 32 125.727 31.9867 125.753 31.96C125.78 31.928 125.793 31.8907 125.793 31.848V30.072C125.793 30.0293 125.799 29.9813 125.809 29.928ZM121.064 29.68H118.912V30.776H121.064V29.68ZM121.064 27.616H118.912V28.616H121.064V27.616ZM132.238 30.6C132.27 30.5733 132.286 30.5387 132.286 30.496V26.552C132.286 26.5093 132.3 26.4747 132.326 26.448C132.353 26.416 132.388 26.4 132.43 26.4H133.542C133.585 26.4 133.62 26.416 133.646 26.448C133.678 26.4747 133.694 26.5093 133.694 26.552V31.064C133.694 31.192 133.668 31.3147 133.614 31.432C133.566 31.544 133.5 31.6427 133.414 31.728C133.396 31.7476 133.377 31.7662 133.356 31.7839C133.288 31.843 133.209 31.891 133.118 31.928C133.006 31.976 132.886 32 132.758 32H130.35C130.222 32 130.1 31.976 129.982 31.928C129.87 31.88 129.772 31.8133 129.686 31.728C129.601 31.6427 129.534 31.544 129.486 31.432C129.438 31.3147 129.414 31.192 129.414 31.064V29.352C129.414 29.2507 129.465 29.2 129.566 29.2H130.67C130.772 29.2 130.822 29.2507 130.822 29.352V30.496C130.822 30.5387 130.836 30.5733 130.862 30.6C130.894 30.6267 130.932 30.64 130.974 30.64H132.134C132.177 30.64 132.212 30.6267 132.238 30.6ZM131.286 28.3688V26.552C131.286 26.2942 131.372 26.0074 131.588 25.7736C131.808 25.5294 132.114 25.4 132.43 25.4H133.542C133.793 25.4 134.037 25.4813 134.238 25.6365C134.285 25.6108 134.335 25.5869 134.385 25.5651C134.628 25.4561 134.888 25.4 135.157 25.4H137.989C138.251 25.4 138.509 25.4539 138.753 25.565C138.803 25.5864 138.852 25.61 138.901 25.6357C139.155 25.4396 139.435 25.4 139.614 25.4H140.75C140.992 25.4 141.202 25.472 141.368 25.5682C141.551 25.6687 141.722 25.8211 141.842 26.0319L141.848 26.0413L141.858 26.0607C141.911 25.948 141.984 25.8392 142.083 25.7409C142.29 25.534 142.577 25.4 142.902 25.4H144.014C144.268 25.4 144.515 25.4833 144.717 25.6424C144.768 25.6144 144.821 25.5886 144.875 25.5651C145.118 25.4561 145.378 25.4 145.646 25.4H148.478C148.729 25.4 148.975 25.4489 149.208 25.5496C149.424 25.4274 149.642 25.4 149.791 25.4H153.767C153.858 25.4 153.948 25.4106 154.035 25.4315C154.14 25.4074 154.236 25.4 154.313 25.4H155.417C155.622 25.4 155.959 25.4519 156.238 25.7309C156.38 25.8728 156.463 26.0297 156.511 26.1767C156.563 26.023 156.651 25.8725 156.782 25.7409C156.989 25.534 157.276 25.4 157.601 25.4H158.713C158.967 25.4 159.214 25.4833 159.416 25.6424C159.467 25.6144 159.52 25.5886 159.574 25.5651C159.818 25.4561 160.078 25.4 160.346 25.4H163.178C163.44 25.4 163.699 25.4539 163.942 25.565C163.994 25.5871 164.045 25.6114 164.095 25.6381C164.349 25.4399 164.631 25.4 164.811 25.4H165.947C166.189 25.4 166.398 25.472 166.565 25.5683C166.748 25.6687 166.919 25.8211 167.039 26.0319L167.044 26.0413L167.055 26.0607C167.108 25.948 167.181 25.8392 167.28 25.7409C167.487 25.534 167.774 25.4 168.099 25.4H169.211C169.513 25.4 169.805 25.5177 170.022 25.7405C170.245 25.9579 170.363 26.25 170.363 26.552V31.848C170.363 32.1732 170.229 32.4602 170.022 32.6671C169.782 32.9065 169.481 33 169.211 33H168.059C167.843 33 167.649 32.9449 167.484 32.8624L167.441 32.8412L167.401 32.816C167.242 32.7167 167.083 32.5715 166.967 32.3681L166.961 32.3583L166.958 32.3525C166.908 32.4597 166.837 32.5682 166.736 32.6691C166.457 32.9481 166.12 33 165.915 33H164.811C164.697 33 164.543 32.9841 164.381 32.9225C164.241 32.9764 164.097 33 163.962 33H162.85C162.579 33 162.314 32.9086 162.098 32.7282L162.028 32.67L161.97 32.6002C161.875 32.4863 161.804 32.3589 161.759 32.2243C161.712 32.3709 161.629 32.5275 161.487 32.6691C161.208 32.9481 160.871 33 160.666 33H159.562C159.448 33 159.294 32.9841 159.132 32.9226C158.993 32.9764 158.849 33 158.713 33H157.601C157.331 33 157.065 32.9086 156.849 32.7282L156.779 32.67L156.721 32.6002C156.626 32.4863 156.556 32.3589 156.511 32.2243C156.463 32.3709 156.38 32.5275 156.238 32.6691C155.959 32.9481 155.622 33 155.417 33H154.313C154.108 33 153.771 32.9481 153.492 32.6691C153.42 32.5968 153.363 32.5205 153.318 32.4437C153.286 32.4981 153.249 32.5504 153.208 32.6002L153.179 32.635L153.146 32.6671C152.907 32.9065 152.605 33 152.335 33H151.223C150.953 33 150.688 32.9086 150.471 32.7282L150.401 32.67L150.343 32.6002C150.305 32.5544 150.271 32.5065 150.241 32.4567C150.193 32.5335 150.137 32.604 150.074 32.6671C149.834 32.9065 149.532 33 149.262 33H148.15C147.88 33 147.615 32.9086 147.398 32.7282L147.328 32.67L147.27 32.6002C147.175 32.4863 147.105 32.3589 147.06 32.2243C147.012 32.3709 146.929 32.5275 146.788 32.6691C146.509 32.9481 146.171 33 145.966 33H144.862C144.749 33 144.595 32.9841 144.433 32.9226C144.293 32.9764 144.149 33 144.014 33H142.862C142.646 33 142.452 32.9449 142.287 32.8624L142.244 32.8412L142.204 32.816C142.045 32.7167 141.886 32.5715 141.77 32.3681L141.764 32.3583L141.761 32.3525C141.711 32.4597 141.64 32.5682 141.539 32.6691C141.26 32.9481 140.923 33 140.718 33H139.614C139.436 33 139.159 32.961 138.907 32.769C138.851 32.7991 138.793 32.8262 138.735 32.8504C138.494 32.9522 138.242 33 137.989 33H135.157C134.9 33 134.649 32.9512 134.41 32.8535L134.402 32.8504L134.395 32.8471C134.237 32.7794 134.089 32.6921 133.955 32.5862C133.817 32.6968 133.665 32.7842 133.505 32.8504C133.264 32.9522 133.012 33 132.758 33H130.35C130.094 33 129.843 32.9512 129.604 32.8535L129.596 32.8504L129.589 32.8471C129.361 32.7495 129.156 32.6113 128.979 32.4351C128.803 32.2589 128.665 32.0537 128.567 31.8259L128.564 31.8183L128.561 31.8106C128.463 31.5719 128.414 31.3206 128.414 31.064V29.352C128.414 29.1472 128.466 28.8099 128.745 28.5309C129.024 28.2519 129.362 28.2 129.566 28.2H130.67C130.827 28.2 131.06 28.2302 131.286 28.3688ZM138.349 31.928C138.389 31.9116 138.426 31.8931 138.462 31.8724C138.476 31.8645 138.489 31.8564 138.502 31.848C138.554 31.8132 138.602 31.7732 138.645 31.728C138.73 31.6427 138.797 31.544 138.845 31.432C138.898 31.3147 138.925 31.192 138.925 31.064V27.336C138.925 27.208 138.898 27.088 138.845 26.976C138.797 26.8587 138.73 26.76 138.645 26.68C138.599 26.6312 138.547 26.5886 138.489 26.552C138.48 26.5464 138.471 26.5409 138.462 26.5356C138.426 26.5149 138.389 26.4963 138.349 26.48C138.237 26.4267 138.117 26.4 137.989 26.4H135.157C135.029 26.4 134.906 26.4267 134.789 26.48C134.756 26.494 134.725 26.5095 134.694 26.5267C134.68 26.5347 134.666 26.5432 134.652 26.552C134.594 26.5886 134.541 26.6312 134.493 26.68C134.407 26.76 134.341 26.8587 134.293 26.976C134.245 27.088 134.221 27.208 134.221 27.336V31.064C134.221 31.192 134.245 31.3147 134.293 31.432C134.341 31.544 134.407 31.6427 134.493 31.728C134.512 31.7472 134.532 31.7654 134.552 31.7827C134.623 31.8424 134.702 31.8908 134.789 31.928C134.906 31.976 135.029 32 135.157 32H137.989C138.117 32 138.237 31.976 138.349 31.928ZM139.614 26.4C139.513 26.4 139.462 26.4507 139.462 26.552V31.848C139.462 31.9493 139.513 32 139.614 32H140.718C140.819 32 140.87 31.9493 140.87 31.848V28.608L142.638 31.872C142.659 31.9093 142.691 31.9413 142.734 31.968C142.777 31.9893 142.819 32 142.862 32H144.014C144.057 32 144.091 31.9867 144.118 31.96C144.15 31.928 144.166 31.8907 144.166 31.848V26.552C144.166 26.5093 144.15 26.4747 144.118 26.448C144.091 26.416 144.057 26.4 144.014 26.4H142.902C142.859 26.4 142.822 26.416 142.79 26.448C142.763 26.4747 142.75 26.5093 142.75 26.552V29.8L140.974 26.528C140.953 26.4907 140.921 26.4613 140.878 26.44C140.835 26.4133 140.793 26.4 140.75 26.4H139.614ZM144.982 26.68C144.897 26.76 144.83 26.8587 144.782 26.976C144.734 27.088 144.71 27.208 144.71 27.336V31.848C144.71 31.9493 144.761 32 144.862 32H145.966C146.068 32 146.118 31.9493 146.118 31.848V30.416C146.118 30.3733 146.132 30.3387 146.158 30.312C146.19 30.28 146.228 30.264 146.27 30.264H147.854C147.897 30.264 147.932 30.28 147.958 30.312C147.985 30.3387 147.998 30.3733 147.998 30.416V31.848C147.998 31.8907 148.012 31.928 148.038 31.96C148.07 31.9867 148.108 32 148.15 32H149.262C149.305 32 149.34 31.9867 149.366 31.96C149.398 31.928 149.414 31.8907 149.414 31.848V27.336C149.414 27.208 149.388 27.088 149.334 26.976C149.286 26.8587 149.22 26.76 149.134 26.68C149.089 26.6312 149.037 26.5886 148.979 26.552C148.936 26.5246 148.889 26.5006 148.838 26.48C148.777 26.4507 148.713 26.4295 148.647 26.4163C148.592 26.4054 148.536 26.4 148.478 26.4H145.646C145.518 26.4 145.396 26.4267 145.278 26.48C145.239 26.4968 145.202 26.5159 145.166 26.5372C145.158 26.542 145.15 26.547 145.142 26.552C145.084 26.5886 145.031 26.6312 144.982 26.68ZM149.791 26.4C149.69 26.4 149.639 26.4507 149.639 26.552V27.608C149.639 27.6507 149.653 27.688 149.679 27.72C149.711 27.7467 149.749 27.76 149.791 27.76H150.927C150.97 27.76 151.005 27.7733 151.031 27.8C151.058 27.8267 151.071 27.8613 151.071 27.904V31.848C151.071 31.8907 151.085 31.928 151.111 31.96C151.143 31.9867 151.181 32 151.223 32H152.335C152.378 32 152.413 31.9867 152.439 31.96C152.466 31.928 152.479 31.8907 152.479 31.848V27.904C152.479 27.8613 152.493 27.8267 152.519 27.8C152.551 27.7733 152.589 27.76 152.631 27.76H153.767C153.81 27.76 153.845 27.7467 153.871 27.72C153.903 27.688 153.919 27.6507 153.919 27.608V26.552C153.919 26.5093 153.903 26.4747 153.871 26.448C153.845 26.416 153.81 26.4 153.767 26.4H149.791ZM154.161 31.848C154.161 31.9493 154.212 32 154.313 32H155.417C155.519 32 155.569 31.9493 155.569 31.848V30C155.569 29.9573 155.583 29.9227 155.609 29.896C155.641 29.8693 155.679 29.856 155.721 29.856H157.305C157.348 29.856 157.383 29.8693 157.409 29.896C157.436 29.9227 157.449 29.9573 157.449 30V31.848C157.449 31.8907 157.463 31.928 157.489 31.96C157.521 31.9867 157.559 32 157.601 32H158.713C158.756 32 158.791 31.9867 158.817 31.96C158.849 31.928 158.865 31.8907 158.865 31.848V26.552C158.865 26.5093 158.849 26.4747 158.817 26.448C158.791 26.416 158.756 26.4 158.713 26.4H157.601C157.559 26.4 157.521 26.416 157.489 26.448C157.463 26.4747 157.449 26.5093 157.449 26.552V28.344C157.449 28.3867 157.436 28.424 157.409 28.456C157.383 28.4827 157.348 28.496 157.305 28.496H155.721C155.62 28.496 155.569 28.4453 155.569 28.344V26.552C155.569 26.4507 155.519 26.4 155.417 26.4H154.313C154.212 26.4 154.161 26.4507 154.161 26.552V31.848ZM159.682 26.68C159.596 26.76 159.53 26.8587 159.482 26.976C159.434 27.088 159.41 27.208 159.41 27.336V31.848C159.41 31.9493 159.46 32 159.562 32H160.666C160.767 32 160.818 31.9493 160.818 31.848V30.416C160.818 30.3733 160.831 30.3387 160.858 30.312C160.89 30.28 160.927 30.264 160.97 30.264H162.554C162.596 30.264 162.631 30.28 162.658 30.312C162.684 30.3387 162.698 30.3733 162.698 30.416V31.848C162.698 31.8907 162.711 31.928 162.738 31.96C162.77 31.9867 162.807 32 162.85 32H163.962C164.004 32 164.039 31.9867 164.066 31.96C164.098 31.928 164.114 31.8907 164.114 31.848V27.336C164.114 27.208 164.087 27.088 164.034 26.976C163.986 26.8587 163.919 26.76 163.834 26.68C163.788 26.6312 163.736 26.5886 163.678 26.552C163.672 26.5479 163.665 26.5439 163.659 26.54C163.621 26.5175 163.581 26.4975 163.538 26.48C163.426 26.4267 163.306 26.4 163.178 26.4H160.346C160.218 26.4 160.095 26.4267 159.978 26.48C159.939 26.4968 159.901 26.5159 159.865 26.5372C159.857 26.542 159.849 26.547 159.841 26.552C159.784 26.5886 159.731 26.6312 159.682 26.68ZM164.811 26.4C164.709 26.4 164.659 26.4507 164.659 26.552V31.848C164.659 31.9493 164.709 32 164.811 32H165.915C166.016 32 166.067 31.9493 166.067 31.848V28.608L167.835 31.872C167.856 31.9093 167.888 31.9413 167.931 31.968C167.973 31.9893 168.016 32 168.059 32H169.211C169.253 32 169.288 31.9867 169.315 31.96C169.347 31.928 169.363 31.8907 169.363 31.848V26.552C169.363 26.5093 169.347 26.4747 169.315 26.448C169.288 26.416 169.253 26.4 169.211 26.4H168.099C168.056 26.4 168.019 26.416 167.987 26.448C167.96 26.4747 167.947 26.5093 167.947 26.552V29.8L166.171 26.528C166.149 26.4907 166.117 26.4613 166.075 26.44C166.032 26.4133 165.989 26.4 165.947 26.4H164.811ZM135.629 27.76H137.509V30.64H135.629V27.76ZM176.586 29.84C176.57 29.7867 176.549 29.744 176.522 29.712L176.186 29.312C176.159 29.2853 176.143 29.248 176.138 29.2C176.138 29.152 176.151 29.112 176.178 29.08L176.522 28.64C176.549 28.608 176.57 28.568 176.586 28.52C176.607 28.4667 176.618 28.4187 176.618 28.376V27.336C176.618 27.208 176.591 27.088 176.538 26.976C176.49 26.8587 176.423 26.76 176.338 26.68C176.317 26.6573 176.294 26.636 176.27 26.616C176.268 26.6143 176.266 26.6125 176.264 26.6108C176.2 26.5578 176.126 26.5142 176.042 26.48C175.93 26.4267 175.81 26.4 175.682 26.4H172.066C171.965 26.4 171.914 26.4507 171.914 26.552V31.848C171.914 31.9493 171.965 32 172.066 32H175.682C175.81 32 175.93 31.976 176.042 31.928C176.126 31.8938 176.2 31.8502 176.264 31.797C176.273 31.7902 176.281 31.7832 176.289 31.776C176.306 31.7607 176.322 31.7447 176.338 31.728C176.423 31.6427 176.49 31.544 176.538 31.432C176.591 31.3147 176.618 31.192 176.618 31.064V29.976C176.618 29.9333 176.607 29.888 176.586 29.84ZM177.123 31.064C177.123 31.192 177.147 31.3147 177.195 31.432C177.243 31.544 177.31 31.6427 177.395 31.728C177.419 31.752 177.444 31.7745 177.47 31.7955C177.537 31.8493 177.611 31.8935 177.691 31.928C177.809 31.976 177.931 32 178.059 32H180.891C181.019 32 181.139 31.976 181.251 31.928C181.291 31.9116 181.329 31.8931 181.365 31.8724C181.378 31.8645 181.392 31.8564 181.404 31.848C181.457 31.8132 181.505 31.7732 181.547 31.728C181.633 31.6427 181.699 31.544 181.747 31.432C181.801 31.3147 181.827 31.192 181.827 31.064V27.336C181.827 27.208 181.801 27.088 181.747 26.976C181.699 26.8587 181.633 26.76 181.547 26.68C181.502 26.6312 181.45 26.5886 181.392 26.552C181.383 26.5464 181.374 26.5409 181.365 26.5356C181.329 26.5149 181.291 26.4963 181.251 26.48C181.139 26.4267 181.019 26.4 180.891 26.4H178.059C177.931 26.4 177.809 26.4267 177.691 26.48C177.611 26.5144 177.537 26.5585 177.471 26.6122C177.445 26.6333 177.419 26.6559 177.395 26.68C177.31 26.76 177.243 26.8587 177.195 26.976C177.147 27.088 177.123 27.208 177.123 27.336V31.064ZM176.869 25.8136C176.997 25.7136 177.137 25.6305 177.288 25.5651C177.531 25.4561 177.791 25.4 178.059 25.4H180.891C181.154 25.4 181.412 25.4539 181.655 25.565C181.706 25.5864 181.755 25.61 181.804 25.6357C182.058 25.4396 182.338 25.4 182.517 25.4H186.133C186.395 25.4 186.654 25.4539 186.897 25.5651C187.075 25.6408 187.243 25.7432 187.393 25.8748C187.541 25.747 187.707 25.6433 187.887 25.5651C188.13 25.4561 188.39 25.4 188.658 25.4H191.962C192.264 25.4 192.557 25.5177 192.774 25.7405C192.997 25.9579 193.114 26.25 193.114 26.552V27.608C193.114 27.8171 193.059 28.0103 192.965 28.1767C193.007 28.2093 193.048 28.2453 193.086 28.2845C193.309 28.5019 193.426 28.794 193.426 29.096V31.064C193.426 31.332 193.37 31.5922 193.261 31.8356C193.166 32.0547 193.033 32.2528 192.865 32.424C192.683 32.6144 192.468 32.7547 192.237 32.8504C191.996 32.9522 191.744 33 191.49 33H188.658C188.402 33 188.151 32.9512 187.912 32.8535L187.904 32.8504L187.897 32.8471C187.866 32.8341 187.836 32.8204 187.807 32.806C187.556 32.979 187.289 33 187.165 33H185.893C185.677 33 185.482 32.9449 185.317 32.8624L185.275 32.8412L185.235 32.816C185.076 32.7167 184.917 32.5715 184.8 32.3681L184.795 32.3592L184.716 32.2173C184.669 32.3659 184.586 32.5253 184.442 32.6691C184.163 32.9481 183.826 33 183.621 33H182.517C182.339 33 182.062 32.961 181.81 32.769C181.754 32.7991 181.696 32.8262 181.638 32.8504C181.397 32.9522 181.145 33 180.891 33H178.059C177.803 33 177.551 32.9512 177.313 32.8535L177.305 32.8504L177.297 32.8471C177.144 32.7812 177 32.6966 176.869 32.5943C176.733 32.7011 176.584 32.7859 176.428 32.8505C176.188 32.9522 175.936 33 175.682 33H172.066C171.861 33 171.524 32.9481 171.245 32.6691C170.966 32.3901 170.914 32.0528 170.914 31.848V26.552C170.914 26.3472 170.966 26.0099 171.245 25.7309C171.524 25.4519 171.861 25.4 172.066 25.4H175.682C175.945 25.4 176.203 25.4539 176.446 25.565C176.595 25.6286 176.738 25.7109 176.869 25.8136ZM187.165 32C187.207 32 187.237 31.9893 187.253 31.968C187.269 31.9413 187.266 31.9093 187.245 31.872L186.389 30.392L186.381 30.376C186.359 30.3547 186.367 30.3387 186.405 30.328L186.429 30.32C186.433 30.3188 186.437 30.3175 186.44 30.3162C186.546 30.2817 186.64 30.2308 186.722 30.1636C186.782 30.115 186.836 30.0578 186.885 29.992C186.945 29.9111 186.99 29.8258 187.021 29.736C187.053 29.6422 187.069 29.5435 187.069 29.44V27.336C187.069 27.208 187.042 27.088 186.989 26.976C186.948 26.8754 186.893 26.7885 186.824 26.7154C186.813 26.7032 186.801 26.6914 186.789 26.68C186.709 26.5947 186.61 26.528 186.493 26.48C186.381 26.4267 186.261 26.4 186.133 26.4H182.517C182.415 26.4 182.365 26.4507 182.365 26.552V31.848C182.365 31.9493 182.415 32 182.517 32H183.621C183.722 32 183.773 31.9493 183.773 31.848V30.36C183.773 30.3333 183.786 30.32 183.813 30.32H184.765C184.791 30.32 184.81 30.3307 184.821 30.352L185.669 31.872C185.69 31.9093 185.722 31.9413 185.765 31.968C185.807 31.9893 185.85 32 185.893 32H187.165ZM187.722 31.064C187.722 31.192 187.746 31.3147 187.794 31.432C187.808 31.4648 187.824 31.4964 187.841 31.5269C187.842 31.5279 187.843 31.529 187.843 31.53C187.885 31.6025 187.935 31.6685 187.994 31.728C188.073 31.8064 188.163 31.8691 188.264 31.916C188.272 31.9201 188.281 31.9241 188.29 31.928C188.408 31.976 188.53 32 188.658 32H191.49C191.618 32 191.738 31.976 191.85 31.928C191.968 31.88 192.066 31.8133 192.146 31.728C192.232 31.6427 192.298 31.544 192.346 31.432C192.4 31.3147 192.426 31.192 192.426 31.064V29.096C192.426 29.0533 192.41 29.0187 192.378 28.992C192.352 28.96 192.317 28.944 192.274 28.944H191.162C191.12 28.944 191.082 28.96 191.05 28.992C191.024 29.0187 191.01 29.0533 191.01 29.096V30.496C191.01 30.5387 190.997 30.5733 190.97 30.6C190.944 30.6267 190.909 30.64 190.866 30.64H189.282C189.24 30.64 189.202 30.6267 189.17 30.6C189.144 30.5733 189.13 30.5387 189.13 30.496V27.904C189.13 27.8613 189.144 27.8267 189.17 27.8C189.202 27.7733 189.24 27.76 189.282 27.76H191.962C192.005 27.76 192.04 27.7467 192.066 27.72C192.098 27.688 192.114 27.6507 192.114 27.608V26.552C192.114 26.5093 192.098 26.4747 192.066 26.448C192.04 26.416 192.005 26.4 191.962 26.4H188.658C188.53 26.4 188.408 26.4267 188.29 26.48C188.178 26.528 188.08 26.5947 187.994 26.68C187.983 26.6907 187.972 26.7017 187.961 26.7131C187.892 26.7867 187.836 26.8744 187.794 26.976C187.746 27.088 187.722 27.208 187.722 27.336V31.064ZM173.186 30.776V29.68H175.338V30.776H173.186ZM175.338 27.616H173.186V28.616H175.338V27.616ZM178.531 27.76H180.411V30.64H178.531V27.76ZM147.998 29.064H146.118V27.656H147.998V29.064ZM162.698 29.064H160.818V27.656H162.698V29.064ZM185.653 27.704V29.064H183.725V27.704H185.653Z" fill="black"/>
<defs>
<filter id="filter0_ii" x="1.16998" y="1" width="92.5314" height="21.7" filterUnits="userSpaceOnUse" color-interpolation-filters="sRGB">
<feFlood flood-opacity="0" result="BackgroundImageFix"/>
<feBlend mode="normal" in="SourceGraphic" in2="BackgroundImageFix" result="shape"/>
<feColorMatrix in="SourceAlpha" type="matrix" values="0 0 0 0 0 0 0 0 0 0 0 0 0 0 0 0 0 0 127 0" result="hardAlpha"/>
<feOffset dy="1"/>
<feComposite in2="hardAlpha" operator="arithmetic" k2="-1" k3="1"/>
<feColorMatrix type="matrix" values="0 0 0 0 1 0 0 0 0 1 0 0 0 0 1 0 0 0 0.25 0"/>
<feBlend mode="normal" in2="shape" result="effect1_innerShadow"/>
<feColorMatrix in="SourceAlpha" type="matrix" values="0 0 0 0 0 0 0 0 0 0 0 0 0 0 0 0 0 0 127 0" result="hardAlpha"/>
<feOffset dy="-1"/>
<feComposite in2="hardAlpha" operator="arithmetic" k2="-1" k3="1"/>
<feColorMatrix type="matrix" values="0 0 0 0 0 0 0 0 0 0 0 0 0 0 0 0 0 0 0.25 0"/>
<feBlend mode="normal" in2="effect1_innerShadow" result="effect2_innerShadow"/>
</filter>
<filter id="filter1_ii" x="95" y="1" width="96.7602" height="21.7" filterUnits="userSpaceOnUse" color-interpolation-filters="sRGB">
<feFlood flood-opacity="0" result="BackgroundImageFix"/>
<feBlend mode="normal" in="SourceGraphic" in2="BackgroundImageFix" result="shape"/>
<feColorMatrix in="SourceAlpha" type="matrix" values="0 0 0 0 0 0 0 0 0 0 0 0 0 0 0 0 0 0 127 0" result="hardAlpha"/>
<feOffset dy="1"/>
<feComposite in2="hardAlpha" operator="arithmetic" k2="-1" k3="1"/>
<feColorMatrix type="matrix" values="0 0 0 0 1 0 0 0 0 1 0 0 0 0 1 0 0 0 0.25 0"/>
<feBlend mode="normal" in2="shape" result="effect1_innerShadow"/>
<feColorMatrix in="SourceAlpha" type="matrix" values="0 0 0 0 0 0 0 0 0 0 0 0 0 0 0 0 0 0 127 0" result="hardAlpha"/>
<feOffset dy="-1"/>
<feComposite in2="hardAlpha" operator="arithmetic" k2="-1" k3="1"/>
<feColorMatrix type="matrix" values="0 0 0 0 0 0 0 0 0 0 0 0 0 0 0 0 0 0 0.25 0"/>
<feBlend mode="normal" in2="effect1_innerShadow" result="effect2_innerShadow"/>
</filter>
<filter id="filter2_ii" x="117.64" y="26.4" width="74.7864" height="5.6" filterUnits="userSpaceOnUse" color-interpolation-filters="sRGB">
<feFlood flood-opacity="0" result="BackgroundImageFix"/>
<feBlend mode="normal" in="SourceGraphic" in2="BackgroundImageFix" result="shape"/>
<feColorMatrix in="SourceAlpha" type="matrix" values="0 0 0 0 0 0 0 0 0 0 0 0 0 0 0 0 0 0 127 0" result="hardAlpha"/>
<feOffset dy="1"/>
<feComposite in2="hardAlpha" operator="arithmetic" k2="-1" k3="1"/>
<feColorMatrix type="matrix" values="0 0 0 0 1 0 0 0 0 1 0 0 0 0 1 0 0 0 0.2 0"/>
<feBlend mode="normal" in2="shape" result="effect1_innerShadow"/>
<feColorMatrix in="SourceAlpha" type="matrix" values="0 0 0 0 0 0 0 0 0 0 0 0 0 0 0 0 0 0 127 0" result="hardAlpha"/>
<feOffset dy="-1"/>
<feComposite in2="hardAlpha" operator="arithmetic" k2="-1" k3="1"/>
<feColorMatrix type="matrix" values="0 0 0 0 0 0 0 0 0 0 0 0 0 0 0 0 0 0 0.25 0"/>
<feBlend mode="normal" in2="effect1_innerShadow" result="effect2_innerShadow"/>
</filter>
</defs>
</svg>
