<svg width="46" height="50" viewBox="0 0 46 50" fill="none" xmlns="http://www.w3.org/2000/svg">
<path d="M44.6723 14.5756C39.9962 9.17994 28.8666 9.55602 28.1097 13.9053C27.4815 17.5284 31.2839 19.555 33.1023 21.434C35.2051 23.6063 35.5622 27.1159 33.8285 29.5095C33.1056 30.5034 28.7899 34.8697 30.0734 39.1817C30.7252 41.3691 32.1931 42.3492 34.1128 42.7471C40.4972 44.0759 41.1708 39.0104 41.237 36.7624C41.2961 34.6531 41.6112 32.6029 42.4797 30.6709C44.6113 25.824 47.8432 18.2361 44.6723 14.5756Z" fill="#18313C"/>
<path d="M28.5246 0.0210968C29.9689 -0.210701 31.4415 1.49419 31.8157 3.82684C32.1899 6.15995 31.3265 8.24045 29.8842 8.47225C28.4399 8.70405 26.9687 6.99915 26.5931 4.66651C26.2204 2.3334 27.0837 0.252895 28.5246 0.0210968ZM36.9625 4.43282C37.0505 6.06676 36.3054 7.43437 35.2964 7.49019C34.2855 7.54459 33.3971 6.2645 33.3072 4.63056C33.2173 2.99662 33.9657 1.62902 34.9733 1.5732C35.9824 1.51927 36.8726 2.79936 36.9625 4.43282ZM41.2016 5.61121C41.2744 6.93671 40.6684 8.04934 39.8472 8.09333C39.026 8.13733 38.3065 7.09944 38.2336 5.77204C38.1608 4.44465 38.7653 3.33391 39.5866 3.2885C40.4078 3.24261 41.1306 4.28381 41.2016 5.61121ZM43.8157 7.57155C43.7462 8.55173 43.1979 9.31193 42.5914 9.26793C41.9854 9.22583 41.5502 8.39609 41.6198 7.41592C41.6893 6.43574 42.2362 5.67554 42.844 5.71954C43.4481 5.76211 43.8852 6.59138 43.8157 7.57155ZM45.6677 9.88433C45.6133 10.6663 45.1753 11.2727 44.6908 11.2387C44.2083 11.2032 43.8597 10.5414 43.9136 9.75897C43.9694 8.977 44.408 8.37054 44.8924 8.4046C45.3768 8.44008 45.7235 9.10378 45.6677 9.88433Z" fill="#18313C"/>
<path d="M18.1344 20.6771C17.3775 16.3278 6.2479 15.9536 1.57362 21.3474C-1.59727 25.0075 1.63134 32.5972 3.76624 37.4427C4.63477 39.3761 4.94794 41.423 5.00896 43.5324C5.07519 45.7808 5.75071 50.8463 12.1332 49.5203C14.0529 49.1206 15.5207 48.1423 16.1712 45.953C17.4546 41.6411 13.1408 37.2748 12.418 36.2809C10.6828 33.8872 11.04 30.379 13.1427 28.2053C14.9602 26.3268 18.7626 24.3003 18.1344 20.6771Z" fill="#18313C"/>
<path d="M14.4252 10.6005C14.8013 8.26742 16.2739 6.56252 17.7148 6.7948C19.1558 7.02659 20.0205 9.10568 19.6463 11.4402C19.2702 13.7733 17.7976 15.4782 16.3567 15.246C14.9143 15.0142 14.051 12.9351 14.4252 10.6005ZM12.9403 11.4014C12.8523 13.0354 11.9601 14.315 10.9511 14.2592C9.94014 14.2048 9.19366 12.8353 9.28354 11.2018C9.37342 9.56785 10.2637 8.28823 11.2727 8.34406C12.2818 8.3994 13.0301 9.76937 12.9403 11.4014ZM8.01055 12.5457C7.93769 13.8731 7.21676 14.911 6.39695 14.867C5.57904 14.823 4.97305 13.7109 5.0459 12.3849C5.11686 11.0575 5.83969 10.0182 6.6595 10.0622C7.47741 10.1076 8.0815 11.2202 8.01055 12.5457ZM4.62441 14.1877C4.69395 15.1679 4.25873 15.9976 3.65417 16.0397C3.0496 16.0818 2.50133 15.3221 2.43179 14.3415C2.36225 13.3608 2.79746 12.5316 3.40203 12.4895C4.00801 12.4473 4.55487 13.2076 4.62441 14.1877ZM2.32535 16.5346C2.38117 17.3165 2.03395 17.9802 1.55001 18.0143C1.0675 18.0483 0.630864 17.4419 0.575043 16.6599C0.519223 15.878 0.866446 15.2143 1.34896 15.1802C1.8329 15.1447 2.26953 15.7507 2.32535 16.5346Z" fill="#18313C"/>
</svg>
