<svg width="54" height="47" viewBox="0 0 54 47" fill="none" xmlns="http://www.w3.org/2000/svg">
<path d="M21.5988 30.0586L26.8084 24.849C27.4264 24.231 27.4264 23.2299 26.8084 22.6119L21.9791 17.7822L26.1072 7.46191C26.3066 6.96135 26.2382 6.39281 25.9247 5.95404C23.2534 2.22638 18.9246 0 14.3438 0C5.97917 0 0 6.53536 0 15.8928C0 27.5607 9.73279 33.4773 23.1714 45.125C23.9027 45.759 24.388 46.3098 25.3483 46.0149C25.8736 45.848 26.2737 45.4233 26.4067 44.8885L28.1944 37.7401C28.3303 37.2012 28.1709 36.631 27.7787 36.2384L21.5988 30.0586Z" fill="#18313C"/>
<path d="M39.6562 0C36.8893 0 34.204 0.795547 31.8915 2.30177C31.618 2.47975 31.4079 2.73766 31.2859 3.04047L26.0792 16.0535C25.8444 16.6406 25.982 17.3113 26.4298 17.7591L32.4012 23.7305L27.1916 28.94C26.5736 29.558 26.5736 30.5592 27.1916 31.1771L31.9158 35.9018L30.3153 42.3103C30.1472 42.9793 30.4343 43.6805 31.0231 44.0423C31.9031 44.5807 32.5544 44.1753 33.2371 43.5833C37.8254 39.6142 41.45 36.4794 44.6541 33.4142C49.4372 28.8366 54 23.5451 54 15.8928C54 6.53535 48.0208 0 39.6562 0Z" fill="#18313C"/>
</svg>
