<svg width="60" height="47" viewBox="0 0 60 47" fill="none" xmlns="http://www.w3.org/2000/svg">
<path d="M54.209 46.769C55.547 46.769 56.7063 46.3272 57.6919 45.4549L40.8278 28.5901C40.4232 28.8799 40.031 29.1616 39.6606 29.4295C38.3985 30.3593 37.3743 31.0849 36.5877 31.6048C35.8013 32.126 34.755 32.6571 33.4489 33.1994C32.1419 33.7423 30.9242 34.013 29.7947 34.013H29.7616H29.7286C28.5989 34.013 27.3813 33.7425 26.0744 33.1994C24.7675 32.6571 23.7212 32.126 22.9356 31.6048C22.1491 31.0849 21.1254 30.3595 19.8627 29.4295C19.5108 29.1716 19.1206 28.8885 18.6987 28.5856L1.83136 45.4549C2.81684 46.3272 3.97697 46.769 5.31486 46.769H54.209V46.769Z" fill="#18313C"/>
<path d="M3.35523 17.9704C2.0933 17.1291 0.974244 16.1655 0 15.0802V40.7385L14.8639 25.8746C11.8903 23.7986 8.05894 21.1669 3.35523 17.9704Z" fill="#18313C"/>
<path d="M56.2024 17.9704C51.6781 21.0326 47.8327 23.6689 44.666 25.8805L59.524 40.7392V15.0802C58.5714 16.1437 57.4643 17.1066 56.2024 17.9704Z" fill="#18313C"/>
<path d="M54.209 0H5.31507C3.6093 0 2.29788 0.576009 1.37919 1.72684C0.459733 2.87821 0.000762939 4.31812 0.000762939 6.04496C0.000762939 7.43981 0.609841 8.95116 1.82746 10.5794C3.04507 12.2071 4.34072 13.4855 5.71373 14.4155C6.46644 14.9473 8.73632 16.5253 12.5234 19.149C14.5677 20.5657 16.3456 21.8005 17.8734 22.866C19.1756 23.7734 20.2987 24.5592 21.2259 25.2113C21.3323 25.2859 21.4997 25.4057 21.7219 25.5645C21.9613 25.7365 22.2642 25.9547 22.6379 26.2245C23.3576 26.745 23.9554 27.1657 24.4315 27.4871C24.907 27.8086 25.4832 28.1677 26.159 28.5665C26.8344 28.9647 27.4713 29.2642 28.0692 29.4633C28.6671 29.6624 29.2206 29.7623 29.7299 29.7623H29.7629H29.796C30.3051 29.7623 30.8587 29.6624 31.4568 29.4633C32.0545 29.2642 32.6909 28.9654 33.3668 28.5665C34.042 28.1677 34.6174 27.8078 35.0944 27.4871C35.5706 27.1657 36.1684 26.7451 36.8881 26.2245C37.2611 25.9547 37.564 25.7364 37.8034 25.5651C38.0257 25.4056 38.193 25.2866 38.3001 25.2113C39.0224 24.7086 40.1481 23.9261 41.6615 22.8752C44.4153 20.9619 48.4709 18.1457 53.8454 14.4155C55.4618 13.2865 56.8122 11.924 57.8976 10.3301C58.981 8.73621 59.5241 7.06427 59.5241 5.31484C59.5241 3.85321 58.9975 2.60252 57.9465 1.56084C56.8944 0.520461 55.6484 0 54.209 0Z" fill="#18313C"/>
</svg>
